<svg width="19" height="21" viewBox="0 0 19 21" fill="none" xmlns="http://www.w3.org/2000/svg">
<path d="M5.52148 12.8594C5.23815 12.8594 5.00048 12.7634 4.80848 12.5714C4.61715 12.38 4.52148 12.1427 4.52148 11.8594C4.52148 11.576 4.61715 11.3384 4.80848 11.1464C5.00048 10.955 5.23815 10.8594 5.52148 10.8594C5.80482 10.8594 6.04248 10.955 6.23448 11.1464C6.42582 11.3384 6.52148 11.576 6.52148 11.8594C6.52148 12.1427 6.42582 12.38 6.23448 12.5714C6.04248 12.7634 5.80482 12.8594 5.52148 12.8594ZM9.52148 12.8594C9.23815 12.8594 9.00082 12.7634 8.80948 12.5714C8.61748 12.38 8.52148 12.1427 8.52148 11.8594C8.52148 11.576 8.61748 11.3384 8.80948 11.1464C9.00082 10.955 9.23815 10.8594 9.52148 10.8594C9.80482 10.8594 10.0425 10.955 10.2345 11.1464C10.4258 11.3384 10.5215 11.576 10.5215 11.8594C10.5215 12.1427 10.4258 12.38 10.2345 12.5714C10.0425 12.7634 9.80482 12.8594 9.52148 12.8594ZM13.5215 12.8594C13.2382 12.8594 13.0008 12.7634 12.8095 12.5714C12.6175 12.38 12.5215 12.1427 12.5215 11.8594C12.5215 11.576 12.6175 11.3384 12.8095 11.1464C13.0008 10.955 13.2382 10.8594 13.5215 10.8594C13.8048 10.8594 14.0422 10.955 14.2335 11.1464C14.4255 11.3384 14.5215 11.576 14.5215 11.8594C14.5215 12.1427 14.4255 12.38 14.2335 12.5714C14.0422 12.7634 13.8048 12.8594 13.5215 12.8594ZM2.52148 20.8594C1.97148 20.8594 1.50048 20.6637 1.10848 20.2724C0.717151 19.8804 0.521484 19.4094 0.521484 18.8594V4.85938C0.521484 4.30938 0.717151 3.83871 1.10848 3.44737C1.50048 3.05537 1.97148 2.85938 2.52148 2.85938H3.52148V0.859375H5.52148V2.85938H13.5215V0.859375H15.5215V2.85938H16.5215C17.0715 2.85938 17.5425 3.05537 17.9345 3.44737C18.3258 3.83871 18.5215 4.30938 18.5215 4.85938V18.8594C18.5215 19.4094 18.3258 19.8804 17.9345 20.2724C17.5425 20.6637 17.0715 20.8594 16.5215 20.8594H2.52148ZM2.52148 18.8594H16.5215V8.85938H2.52148V18.8594ZM2.52148 6.85938H16.5215V4.85938H2.52148V6.85938Z" fill="#121212" fill-opacity="0.8"/>
</svg>
