<svg width="13" height="21" viewBox="0 0 13 21" fill="none" xmlns="http://www.w3.org/2000/svg">
<path d="M9.11357 1.04695C7.52852 1.04698 6.23287 1.55231 5.33355 2.47417C4.43448 3.39576 3.94219 4.72267 3.94219 6.34579V8.41654H1.4217C1.27075 8.41654 1.12599 8.47651 1.01925 8.58324C0.912518 8.68998 0.852556 8.83474 0.852556 8.98569V12.5632C0.852556 12.7141 0.912518 12.8589 1.01925 12.9656C1.12599 13.0723 1.27075 13.1323 1.4217 13.1323H3.94219V20.2013C3.94219 20.3522 4.00215 20.497 4.10889 20.6037L4.18281 20.5298L4.10889 20.6037C4.21562 20.7105 4.36039 20.7704 4.51133 20.7704H8.20774C8.35869 20.7704 8.50345 20.7105 8.61019 20.6037L8.53627 20.5298L8.61019 20.6037C8.71693 20.497 8.77689 20.3522 8.77689 20.2013V13.1323H11.289C11.289 13.1323 11.289 13.1323 11.289 13.1323C11.4272 13.1324 11.5606 13.0822 11.6645 12.9911C11.7684 12.8999 11.8356 12.7742 11.8536 12.6371L11.8536 12.6369L12.3154 9.05967C12.3154 9.05966 12.3154 9.05964 12.3154 9.05962C12.3259 8.97931 12.3192 8.89768 12.2956 8.82019C12.2721 8.74268 12.2322 8.67109 12.1788 8.61021C12.1253 8.54932 12.0595 8.50056 11.9857 8.46716C11.9119 8.43377 11.8318 8.41651 11.7508 8.41654C11.7508 8.41654 11.7508 8.41654 11.7508 8.41654H8.77689V6.70075C8.77689 6.24796 8.82499 5.96768 8.98152 5.79387C9.13557 5.62281 9.42117 5.52762 9.98068 5.52762H11.8753C12.0263 5.52762 12.1711 5.46766 12.2778 5.36092C12.3845 5.25419 12.4445 5.10942 12.4445 4.95848V1.75739C12.4445 1.75737 12.4445 1.75735 12.4445 1.75733C12.4445 1.61917 12.3943 1.48571 12.3032 1.38184C12.2121 1.27795 12.0863 1.21076 11.9493 1.1928L11.9493 1.19276L11.9468 1.19249C11.0057 1.09266 10.0599 1.04408 9.11357 1.04695ZM9.11357 1.04695C9.11362 1.04695 9.11367 1.04695 9.11373 1.04695V1.15149L9.11341 1.04695C9.11346 1.04695 9.11351 1.04695 9.11357 1.04695ZM8.20682 9.55576H8.20661C8.05586 9.55546 7.91139 9.49536 7.8049 9.38866C7.69841 9.28196 7.6386 9.13736 7.6386 8.98661V6.70075C7.6386 6.2227 7.69624 5.64279 8.02468 5.18159C8.3583 4.71311 8.9543 4.38935 9.97969 4.38933L8.20682 9.55576ZM8.20682 9.55576H11.1041L10.7883 11.9949H8.20774C8.0568 11.9949 7.91203 12.0549 7.8053 12.1616C7.69857 12.2684 7.6386 12.4131 7.6386 12.5641V19.6312H5.08048V12.5641C5.08048 12.4131 5.02051 12.2684 4.91378 12.1616C4.80704 12.0549 4.66228 11.9949 4.51133 11.9949H1.99177V9.55576H4.51133C4.66228 9.55576 4.80704 9.4958 4.91378 9.38906C5.02051 9.28232 5.08048 9.13756 5.08048 8.98661V6.34579C5.08048 5.03047 5.46117 3.99289 6.14837 3.28458C6.83518 2.57667 7.84015 2.18524 9.11373 2.18524C9.99175 2.18524 10.7897 2.23024 11.3062 2.2725V4.38847L9.97976 4.38933L8.20682 9.55576Z" fill="white" stroke="white" stroke-width="0.209073"/>
</svg>
