<svg width="207" height="53" viewBox="0 0 207 53" fill="none" xmlns="http://www.w3.org/2000/svg">
<path d="M95.4502 24.2188H91.6562V15.3707H82.1642V24.2188H78.3702V3.97475H82.1642V12.6827H91.6562V3.97475H95.4502V24.2188ZM102.502 9.85475V18.9827C102.502 19.8601 102.703 20.5414 103.104 21.0267C103.515 21.5027 104.126 21.7407 104.938 21.7407C105.536 21.7407 106.096 21.6101 106.618 21.3487C107.141 21.0781 107.636 20.7094 108.102 20.2427V9.85475H111.56V24.2188H109.446C108.998 24.2188 108.704 24.0087 108.564 23.5887L108.326 22.4407C108.028 22.7394 107.72 23.0147 107.402 23.2667C107.085 23.5094 106.744 23.7194 106.38 23.8967C106.026 24.0647 105.638 24.1954 105.218 24.2888C104.808 24.3914 104.364 24.4428 103.888 24.4428C103.104 24.4428 102.409 24.3121 101.802 24.0507C101.205 23.7801 100.701 23.4021 100.29 22.9167C99.8796 22.4314 99.5669 21.8574 99.3522 21.1947C99.1469 20.5227 99.0442 19.7854 99.0442 18.9827V9.85475H102.502ZM115.252 24.2188V9.85475H117.366C117.814 9.85475 118.108 10.0647 118.248 10.4847L118.472 11.5487C118.724 11.2687 118.986 11.0121 119.256 10.7787C119.536 10.5454 119.83 10.3447 120.138 10.1767C120.456 10.0087 120.792 9.87808 121.146 9.78475C121.51 9.68208 121.907 9.63075 122.336 9.63075C123.242 9.63075 123.984 9.87808 124.562 10.3727C125.15 10.8581 125.589 11.5067 125.878 12.3187C126.102 11.8427 126.382 11.4367 126.718 11.1007C127.054 10.7554 127.423 10.4754 127.824 10.2607C128.226 10.0461 128.65 9.88742 129.098 9.78475C129.556 9.68208 130.013 9.63075 130.47 9.63075C131.264 9.63075 131.968 9.75208 132.584 9.99475C133.2 10.2374 133.718 10.5921 134.138 11.0587C134.558 11.5254 134.876 12.0947 135.09 12.7667C135.314 13.4387 135.426 14.2087 135.426 15.0767V24.2188H131.968V15.0767C131.968 14.1621 131.768 13.4761 131.366 13.0187C130.965 12.5521 130.377 12.3187 129.602 12.3187C129.248 12.3187 128.916 12.3794 128.608 12.5007C128.31 12.6221 128.044 12.7994 127.81 13.0327C127.586 13.2567 127.409 13.5414 127.278 13.8867C127.148 14.2321 127.082 14.6287 127.082 15.0767V24.2188H123.61V15.0767C123.61 14.1154 123.414 13.4154 123.022 12.9767C122.64 12.5381 122.07 12.3187 121.314 12.3187C120.82 12.3187 120.353 12.4447 119.914 12.6967C119.485 12.9394 119.084 13.2754 118.71 13.7047V24.2188H115.252ZM150.079 24.2188H148.525C148.198 24.2188 147.941 24.1721 147.755 24.0787C147.568 23.9761 147.428 23.7754 147.335 23.4767L147.027 22.4547C146.663 22.7814 146.303 23.0707 145.949 23.3227C145.603 23.5654 145.244 23.7707 144.871 23.9387C144.497 24.1067 144.101 24.2328 143.681 24.3168C143.261 24.4008 142.794 24.4428 142.281 24.4428C141.674 24.4428 141.114 24.3634 140.601 24.2047C140.087 24.0367 139.644 23.7894 139.271 23.4627C138.907 23.1361 138.622 22.7301 138.417 22.2447C138.211 21.7594 138.109 21.1947 138.109 20.5507C138.109 20.0094 138.249 19.4774 138.529 18.9547C138.818 18.4227 139.294 17.9467 139.957 17.5267C140.619 17.0974 141.501 16.7427 142.603 16.4627C143.704 16.1827 145.071 16.0241 146.705 15.9868V15.1467C146.705 14.1854 146.499 13.4761 146.089 13.0187C145.687 12.5521 145.099 12.3187 144.325 12.3187C143.765 12.3187 143.298 12.3841 142.925 12.5147C142.551 12.6454 142.225 12.7947 141.945 12.9627C141.674 13.1214 141.422 13.2661 141.189 13.3967C140.955 13.5274 140.699 13.5927 140.419 13.5927C140.185 13.5927 139.985 13.5321 139.817 13.4107C139.649 13.2894 139.513 13.1401 139.411 12.9627L138.781 11.8567C140.433 10.3447 142.425 9.58875 144.759 9.58875C145.599 9.58875 146.345 9.72875 146.999 10.0087C147.661 10.2794 148.221 10.6621 148.679 11.1567C149.136 11.6421 149.481 12.2254 149.715 12.9067C149.957 13.5881 150.079 14.3347 150.079 15.1467V24.2188ZM143.359 22.0627C143.713 22.0627 144.04 22.0301 144.339 21.9647C144.637 21.8994 144.917 21.8014 145.179 21.6707C145.449 21.5401 145.706 21.3814 145.949 21.1947C146.201 20.9987 146.453 20.7701 146.705 20.5087V18.0867C145.697 18.1334 144.852 18.2221 144.171 18.3527C143.499 18.4741 142.957 18.6327 142.547 18.8287C142.136 19.0247 141.842 19.2534 141.665 19.5147C141.497 19.7761 141.413 20.0607 141.413 20.3687C141.413 20.9754 141.59 21.4094 141.945 21.6707C142.309 21.9321 142.78 22.0627 143.359 22.0627ZM153.479 24.2188V9.85475H155.593C156.041 9.85475 156.335 10.0647 156.475 10.4847L156.713 11.6187C157.002 11.3201 157.306 11.0494 157.623 10.8067C157.95 10.5641 158.29 10.3541 158.645 10.1767C159.009 9.99942 159.396 9.86408 159.807 9.77075C160.218 9.67742 160.666 9.63075 161.151 9.63075C161.935 9.63075 162.63 9.76608 163.237 10.0367C163.844 10.2981 164.348 10.6714 164.749 11.1567C165.16 11.6327 165.468 12.2067 165.673 12.8787C165.888 13.5414 165.995 14.2741 165.995 15.0767V24.2188H162.537V15.0767C162.537 14.1994 162.332 13.5227 161.921 13.0467C161.52 12.5614 160.913 12.3187 160.101 12.3187C159.504 12.3187 158.944 12.4541 158.421 12.7247C157.898 12.9954 157.404 13.3641 156.937 13.8307V24.2188H153.479ZM82.2622 42.3088V50.2188H78.4962V29.9747H84.6702C86.0515 29.9747 87.2322 30.1194 88.2122 30.4087C89.2015 30.6887 90.0088 31.0854 90.6342 31.5987C91.2688 32.1121 91.7308 32.7281 92.0202 33.4467C92.3188 34.1561 92.4682 34.9401 92.4682 35.7987C92.4682 36.4801 92.3655 37.1241 92.1602 37.7307C91.9642 38.3374 91.6748 38.8881 91.2922 39.3827C90.9188 39.8774 90.4522 40.3114 89.8922 40.6847C89.3415 41.0581 88.7115 41.3567 88.0022 41.5807C88.4782 41.8514 88.8888 42.2387 89.2342 42.7427L94.3022 50.2188H90.9142C90.5875 50.2188 90.3075 50.1534 90.0742 50.0227C89.8502 49.8921 89.6588 49.7054 89.5002 49.4627L85.2442 42.9807C85.0855 42.7381 84.9082 42.5654 84.7122 42.4627C84.5255 42.3601 84.2455 42.3088 83.8722 42.3088H82.2622ZM82.2622 39.6067H84.6142C85.3235 39.6067 85.9395 39.5181 86.4622 39.3407C86.9942 39.1634 87.4282 38.9207 87.7642 38.6127C88.1095 38.2954 88.3662 37.9221 88.5342 37.4927C88.7022 37.0634 88.7862 36.5921 88.7862 36.0788C88.7862 35.0521 88.4455 34.2634 87.7642 33.7127C87.0922 33.1621 86.0608 32.8867 84.6702 32.8867H82.2622V39.6067ZM102.458 35.6307C103.363 35.6307 104.194 35.7754 104.95 36.0647C105.715 36.3541 106.373 36.7787 106.924 37.3387C107.474 37.8894 107.904 38.5707 108.212 39.3827C108.52 40.1854 108.674 41.1047 108.674 42.1407C108.674 42.4021 108.66 42.6214 108.632 42.7987C108.613 42.9667 108.571 43.1021 108.506 43.2047C108.45 43.2981 108.37 43.3681 108.268 43.4147C108.165 43.4521 108.034 43.4707 107.876 43.4707H98.9998C99.1025 44.9454 99.4992 46.0281 100.19 46.7188C100.88 47.4094 101.795 47.7547 102.934 47.7547C103.494 47.7547 103.974 47.6894 104.376 47.5587C104.786 47.4281 105.141 47.2834 105.44 47.1247C105.748 46.9661 106.014 46.8214 106.238 46.6907C106.471 46.5601 106.695 46.4947 106.91 46.4947C107.05 46.4947 107.171 46.5227 107.274 46.5787C107.376 46.6347 107.465 46.7141 107.54 46.8167L108.548 48.0767C108.165 48.5247 107.736 48.9027 107.26 49.2107C106.784 49.5094 106.284 49.7521 105.762 49.9387C105.248 50.1161 104.721 50.2421 104.18 50.3168C103.648 50.3914 103.13 50.4288 102.626 50.4288C101.627 50.4288 100.698 50.2654 99.8398 49.9387C98.9812 49.6027 98.2345 49.1127 97.5998 48.4688C96.9652 47.8154 96.4658 47.0127 96.1018 46.0607C95.7378 45.0994 95.5558 43.9887 95.5558 42.7287C95.5558 41.7487 95.7145 40.8294 96.0318 39.9707C96.3492 39.1027 96.8018 38.3514 97.3898 37.7167C97.9872 37.0727 98.7105 36.5641 99.5598 36.1907C100.418 35.8174 101.384 35.6307 102.458 35.6307ZM102.528 38.1087C101.52 38.1087 100.731 38.3934 100.162 38.9627C99.5925 39.5321 99.2285 40.3394 99.0698 41.3847H105.566C105.566 40.9367 105.505 40.5167 105.384 40.1247C105.262 39.7234 105.076 39.3734 104.824 39.0747C104.572 38.7761 104.254 38.5427 103.872 38.3747C103.489 38.1974 103.041 38.1087 102.528 38.1087ZM120.005 38.6547C119.912 38.8041 119.814 38.9114 119.711 38.9767C119.608 39.0327 119.478 39.0607 119.319 39.0607C119.151 39.0607 118.969 39.0141 118.773 38.9207C118.586 38.8274 118.367 38.7247 118.115 38.6127C117.863 38.4914 117.574 38.3841 117.247 38.2907C116.93 38.1974 116.552 38.1507 116.113 38.1507C115.432 38.1507 114.895 38.2954 114.503 38.5847C114.111 38.8741 113.915 39.2521 113.915 39.7187C113.915 40.0267 114.013 40.2881 114.209 40.5027C114.414 40.7081 114.68 40.8901 115.007 41.0487C115.343 41.2074 115.721 41.3521 116.141 41.4827C116.561 41.6041 116.99 41.7394 117.429 41.8887C117.868 42.0381 118.297 42.2107 118.717 42.4067C119.137 42.5934 119.51 42.8361 119.837 43.1347C120.173 43.4241 120.439 43.7741 120.635 44.1847C120.84 44.5954 120.943 45.0901 120.943 45.6687C120.943 46.3594 120.817 46.9987 120.565 47.5867C120.313 48.1654 119.944 48.6694 119.459 49.0987C118.974 49.5187 118.372 49.8501 117.653 50.0927C116.944 50.3261 116.127 50.4428 115.203 50.4428C114.708 50.4428 114.223 50.3961 113.747 50.3028C113.28 50.2188 112.828 50.0974 112.389 49.9387C111.96 49.7801 111.558 49.5934 111.185 49.3787C110.821 49.1641 110.499 48.9307 110.219 48.6787L111.017 47.3627C111.12 47.2041 111.241 47.0827 111.381 46.9987C111.521 46.9147 111.698 46.8727 111.913 46.8727C112.128 46.8727 112.328 46.9334 112.515 47.0547C112.711 47.1761 112.935 47.3067 113.187 47.4467C113.439 47.5867 113.733 47.7174 114.069 47.8387C114.414 47.9601 114.848 48.0207 115.371 48.0207C115.782 48.0207 116.132 47.9741 116.421 47.8807C116.72 47.7781 116.962 47.6474 117.149 47.4887C117.345 47.3301 117.485 47.1481 117.569 46.9427C117.662 46.7281 117.709 46.5087 117.709 46.2847C117.709 45.9487 117.606 45.6734 117.401 45.4587C117.205 45.2441 116.939 45.0574 116.603 44.8987C116.276 44.7401 115.898 44.6001 115.469 44.4787C115.049 44.3481 114.615 44.2081 114.167 44.0587C113.728 43.9094 113.294 43.7367 112.865 43.5407C112.445 43.3354 112.067 43.0787 111.731 42.7707C111.404 42.4627 111.138 42.0847 110.933 41.6367C110.737 41.1887 110.639 40.6474 110.639 40.0127C110.639 39.4247 110.756 38.8647 110.989 38.3327C111.222 37.8007 111.563 37.3387 112.011 36.9467C112.468 36.5454 113.033 36.2281 113.705 35.9947C114.386 35.7521 115.17 35.6307 116.057 35.6307C117.046 35.6307 117.947 35.7941 118.759 36.1207C119.571 36.4474 120.248 36.8767 120.789 37.4087L120.005 38.6547ZM129.834 35.6307C130.907 35.6307 131.878 35.8034 132.746 36.1488C133.623 36.4941 134.37 36.9841 134.986 37.6187C135.602 38.2534 136.078 39.0281 136.414 39.9427C136.75 40.8574 136.918 41.8794 136.918 43.0087C136.918 44.1474 136.75 45.1741 136.414 46.0887C136.078 47.0034 135.602 47.7827 134.986 48.4267C134.37 49.0707 133.623 49.5654 132.746 49.9107C131.878 50.2561 130.907 50.4288 129.834 50.4288C128.76 50.4288 127.785 50.2561 126.908 49.9107C126.03 49.5654 125.279 49.0707 124.654 48.4267C124.038 47.7827 123.557 47.0034 123.212 46.0887C122.876 45.1741 122.708 44.1474 122.708 43.0087C122.708 41.8794 122.876 40.8574 123.212 39.9427C123.557 39.0281 124.038 38.2534 124.654 37.6187C125.279 36.9841 126.03 36.4941 126.908 36.1488C127.785 35.8034 128.76 35.6307 129.834 35.6307ZM129.834 47.7687C131.028 47.7687 131.91 47.3674 132.48 46.5647C133.058 45.7621 133.348 44.5861 133.348 43.0367C133.348 41.4874 133.058 40.3067 132.48 39.4947C131.91 38.6827 131.028 38.2767 129.834 38.2767C128.62 38.2767 127.724 38.6874 127.146 39.5087C126.567 40.3207 126.278 41.4967 126.278 43.0367C126.278 44.5767 126.567 45.7527 127.146 46.5647C127.724 47.3674 128.62 47.7687 129.834 47.7687ZM142.78 35.8547V44.9827C142.78 45.8601 142.98 46.5414 143.382 47.0267C143.792 47.5027 144.404 47.7407 145.216 47.7407C145.813 47.7407 146.373 47.6101 146.896 47.3487C147.418 47.0781 147.913 46.7094 148.38 46.2427V35.8547H151.838V50.2188H149.724C149.276 50.2188 148.982 50.0087 148.842 49.5887L148.604 48.4407C148.305 48.7394 147.997 49.0147 147.68 49.2667C147.362 49.5094 147.022 49.7194 146.658 49.8967C146.303 50.0647 145.916 50.1954 145.496 50.2888C145.085 50.3914 144.642 50.4428 144.166 50.4428C143.382 50.4428 142.686 50.3121 142.08 50.0507C141.482 49.7801 140.978 49.4021 140.568 48.9167C140.157 48.4314 139.844 47.8574 139.63 47.1947C139.424 46.5227 139.322 45.7854 139.322 44.9827V35.8547H142.78ZM155.53 50.2188V35.8547H157.56C157.914 35.8547 158.162 35.9201 158.302 36.0507C158.442 36.1814 158.535 36.4054 158.582 36.7227L158.792 38.4587C159.305 37.5721 159.907 36.8721 160.598 36.3587C161.288 35.8454 162.063 35.5887 162.922 35.5887C163.631 35.5887 164.219 35.7521 164.686 36.0788L164.238 38.6687C164.21 38.8367 164.149 38.9581 164.056 39.0327C163.962 39.0981 163.836 39.1307 163.678 39.1307C163.538 39.1307 163.346 39.0981 163.104 39.0327C162.861 38.9674 162.539 38.9347 162.138 38.9347C161.419 38.9347 160.803 39.1354 160.29 39.5367C159.776 39.9287 159.342 40.5074 158.988 41.2727V50.2188H155.53ZM177.053 38.8927C176.951 39.0234 176.848 39.1261 176.745 39.2007C176.652 39.2754 176.512 39.3127 176.325 39.3127C176.148 39.3127 175.975 39.2614 175.807 39.1587C175.639 39.0467 175.439 38.9254 175.205 38.7947C174.972 38.6547 174.692 38.5334 174.365 38.4307C174.048 38.3187 173.651 38.2627 173.175 38.2627C172.569 38.2627 172.037 38.3747 171.579 38.5987C171.122 38.8134 170.739 39.1261 170.431 39.5367C170.133 39.9474 169.909 40.4467 169.759 41.0347C169.61 41.6134 169.535 42.2714 169.535 43.0087C169.535 43.7741 169.615 44.4554 169.773 45.0527C169.941 45.6501 170.179 46.1541 170.487 46.5647C170.795 46.9661 171.169 47.2741 171.607 47.4887C172.046 47.6941 172.541 47.7967 173.091 47.7967C173.642 47.7967 174.085 47.7314 174.421 47.6007C174.767 47.4607 175.056 47.3114 175.289 47.1527C175.523 46.9847 175.723 46.8354 175.891 46.7047C176.069 46.5647 176.265 46.4947 176.479 46.4947C176.759 46.4947 176.969 46.6021 177.109 46.8167L178.103 48.0767C177.721 48.5247 177.305 48.9027 176.857 49.2107C176.409 49.5094 175.943 49.7521 175.457 49.9387C174.981 50.1161 174.487 50.2421 173.973 50.3168C173.46 50.3914 172.951 50.4288 172.447 50.4288C171.561 50.4288 170.725 50.2654 169.941 49.9387C169.157 49.6027 168.471 49.1174 167.883 48.4827C167.305 47.8481 166.843 47.0734 166.497 46.1587C166.161 45.2347 165.993 44.1847 165.993 43.0087C165.993 41.9541 166.143 40.9787 166.441 40.0827C166.749 39.1774 167.197 38.3981 167.785 37.7447C168.373 37.0821 169.101 36.5641 169.969 36.1907C170.837 35.8174 171.836 35.6307 172.965 35.6307C174.039 35.6307 174.977 35.8034 175.779 36.1488C176.591 36.4941 177.319 36.9887 177.963 37.6327L177.053 38.8927ZM186.239 35.6307C187.144 35.6307 187.975 35.7754 188.731 36.0647C189.496 36.3541 190.154 36.7787 190.705 37.3387C191.256 37.8894 191.685 38.5707 191.993 39.3827C192.301 40.1854 192.455 41.1047 192.455 42.1407C192.455 42.4021 192.441 42.6214 192.413 42.7987C192.394 42.9667 192.352 43.1021 192.287 43.2047C192.231 43.2981 192.152 43.3681 192.049 43.4147C191.946 43.4521 191.816 43.4707 191.657 43.4707H182.781C182.884 44.9454 183.28 46.0281 183.971 46.7188C184.662 47.4094 185.576 47.7547 186.715 47.7547C187.275 47.7547 187.756 47.6894 188.157 47.5587C188.568 47.4281 188.922 47.2834 189.221 47.1247C189.529 46.9661 189.795 46.8214 190.019 46.6907C190.252 46.5601 190.476 46.4947 190.691 46.4947C190.831 46.4947 190.952 46.5227 191.055 46.5787C191.158 46.6347 191.246 46.7141 191.321 46.8167L192.329 48.0767C191.946 48.5247 191.517 48.9027 191.041 49.2107C190.565 49.5094 190.066 49.7521 189.543 49.9387C189.03 50.1161 188.502 50.2421 187.961 50.3168C187.429 50.3914 186.911 50.4288 186.407 50.4288C185.408 50.4288 184.48 50.2654 183.621 49.9387C182.762 49.6027 182.016 49.1127 181.381 48.4688C180.746 47.8154 180.247 47.0127 179.883 46.0607C179.519 45.0994 179.337 43.9887 179.337 42.7287C179.337 41.7487 179.496 40.8294 179.813 39.9707C180.13 39.1027 180.583 38.3514 181.171 37.7167C181.768 37.0727 182.492 36.5641 183.341 36.1907C184.2 35.8174 185.166 35.6307 186.239 35.6307ZM186.309 38.1087C185.301 38.1087 184.512 38.3934 183.943 38.9627C183.374 39.5321 183.01 40.3394 182.851 41.3847H189.347C189.347 40.9367 189.286 40.5167 189.165 40.1247C189.044 39.7234 188.857 39.3734 188.605 39.0747C188.353 38.7761 188.036 38.5427 187.653 38.3747C187.27 38.1974 186.822 38.1087 186.309 38.1087ZM203.786 38.6547C203.693 38.8041 203.595 38.9114 203.492 38.9767C203.389 39.0327 203.259 39.0607 203.1 39.0607C202.932 39.0607 202.75 39.0141 202.554 38.9207C202.367 38.8274 202.148 38.7247 201.896 38.6127C201.644 38.4914 201.355 38.3841 201.028 38.2907C200.711 38.1974 200.333 38.1507 199.894 38.1507C199.213 38.1507 198.676 38.2954 198.284 38.5847C197.892 38.8741 197.696 39.2521 197.696 39.7187C197.696 40.0267 197.794 40.2881 197.99 40.5027C198.195 40.7081 198.461 40.8901 198.788 41.0487C199.124 41.2074 199.502 41.3521 199.922 41.4827C200.342 41.6041 200.771 41.7394 201.21 41.8887C201.649 42.0381 202.078 42.2107 202.498 42.4067C202.918 42.5934 203.291 42.8361 203.618 43.1347C203.954 43.4241 204.22 43.7741 204.416 44.1847C204.621 44.5954 204.724 45.0901 204.724 45.6687C204.724 46.3594 204.598 46.9987 204.346 47.5867C204.094 48.1654 203.725 48.6694 203.24 49.0987C202.755 49.5187 202.153 49.8501 201.434 50.0927C200.725 50.3261 199.908 50.4428 198.984 50.4428C198.489 50.4428 198.004 50.3961 197.528 50.3028C197.061 50.2188 196.609 50.0974 196.17 49.9387C195.741 49.7801 195.339 49.5934 194.966 49.3787C194.602 49.1641 194.28 48.9307 194 48.6787L194.798 47.3627C194.901 47.2041 195.022 47.0827 195.162 46.9987C195.302 46.9147 195.479 46.8727 195.694 46.8727C195.909 46.8727 196.109 46.9334 196.296 47.0547C196.492 47.1761 196.716 47.3067 196.968 47.4467C197.22 47.5867 197.514 47.7174 197.85 47.8387C198.195 47.9601 198.629 48.0207 199.152 48.0207C199.563 48.0207 199.913 47.9741 200.202 47.8807C200.501 47.7781 200.743 47.6474 200.93 47.4887C201.126 47.3301 201.266 47.1481 201.35 46.9427C201.443 46.7281 201.49 46.5087 201.49 46.2847C201.49 45.9487 201.387 45.6734 201.182 45.4587C200.986 45.2441 200.72 45.0574 200.384 44.8987C200.057 44.7401 199.679 44.6001 199.25 44.4787C198.83 44.3481 198.396 44.2081 197.948 44.0587C197.509 43.9094 197.075 43.7367 196.646 43.5407C196.226 43.3354 195.848 43.0787 195.512 42.7707C195.185 42.4627 194.919 42.0847 194.714 41.6367C194.518 41.1887 194.42 40.6474 194.42 40.0127C194.42 39.4247 194.537 38.8647 194.77 38.3327C195.003 37.8007 195.344 37.3387 195.792 36.9467C196.249 36.5454 196.814 36.2281 197.486 35.9947C198.167 35.7521 198.951 35.6307 199.838 35.6307C200.827 35.6307 201.728 35.7941 202.54 36.1207C203.352 36.4474 204.029 36.8767 204.57 37.4087L203.786 38.6547Z" fill="white"/>
<path d="M19.6403 11.0685C20.2866 10.1442 20.8711 9.21202 21.5745 8.35165C22.9909 6.6077 24.8016 5.21095 26.8635 4.2719C29.3503 3.1234 32.0655 2.52923 34.8142 2.5321C36.0907 2.5321 37.3707 2.49844 38.6357 2.68802C42.296 3.23655 45.5925 4.55234 48.2907 7.11999C48.3868 7.21085 48.4841 7.29946 48.5859 7.38359C48.6448 7.41095 48.7071 7.43093 48.7712 7.44305C48.7712 6.66344 48.794 5.90627 48.7631 5.15246C48.7414 4.63086 48.9667 4.46596 49.4712 4.46708C55.2665 4.47606 61.0619 4.47606 66.8573 4.46708C67.3537 4.46708 67.5733 4.61628 67.571 5.14574C67.5527 8.52739 67.5527 11.9098 67.571 15.2929C67.571 15.7293 67.4052 15.9054 66.9808 16.0176C64.4148 16.6906 61.8549 17.3827 59.3012 18.0939C58.1356 18.4203 56.9872 18.8084 55.8411 19.1977C55.3596 19.3615 55.3104 19.1035 55.3092 18.7636C55.3035 17.6609 55.3092 16.5571 55.3092 15.4545C55.3092 14.6603 55.3092 14.6614 54.5257 14.6692C54.164 14.6883 53.8014 14.6839 53.4402 14.6558C52.9541 14.5975 52.8615 14.8016 52.9827 15.201C53.3659 16.427 53.3018 17.7092 53.4517 18.9632C53.5592 19.8606 53.3876 20.0076 52.4966 20.2846C49.3476 21.2617 46.2559 22.3958 43.1367 23.4569C41.8785 23.8832 40.6397 24.3464 39.3895 24.7862C39.2751 24.8265 39.1425 24.9466 39.0224 24.8131C38.9023 24.6796 38.9972 24.5708 39.059 24.453C39.6309 23.3941 40.1307 22.3094 40.3812 21.1304C40.8799 18.7826 41.008 16.4921 39.2614 14.5122C38.5507 13.6806 37.5809 13.1012 36.5014 12.8633C35.0705 12.5324 33.8397 12.8408 32.6742 13.6058C31.6905 14.252 31.1872 15.2301 30.8692 16.3059C30.5339 17.3807 30.5077 18.5254 30.7937 19.6139C30.8715 19.8988 30.7502 20.0895 30.4185 20.0962C30.247 20.0962 30.0754 20.0962 29.9038 20.0962C26.7206 20.0962 23.5384 20.1074 20.3552 20.0861C19.8142 20.0861 19.6323 20.2274 19.6357 20.776C19.6586 24.0851 19.6506 27.3942 19.6449 30.7022C19.6449 31.8923 19.7947 31.6411 18.6303 32.0427C16.5188 32.7718 14.3742 33.41 12.2352 34.0618C10.9118 34.4611 9.57468 34.8223 8.23183 35.1734C7.41628 35.3877 7.3751 35.3383 7.3751 34.4746C7.3751 28.4 7.3732 22.3251 7.36939 16.2498C7.36939 15.7506 7.58786 15.1168 7.26644 14.7859C6.94503 14.455 6.29076 14.6883 5.77947 14.6793C4.35046 14.6554 2.92106 14.6502 1.49128 14.6636C0.905648 14.6704 0.7112 14.4584 0.716919 13.8695C0.745514 11.0292 0.728357 8.18788 0.730644 5.34429C0.730644 4.51084 0.766103 4.47494 1.6457 4.47382C6.03035 4.47382 10.415 4.47382 14.7997 4.47382C16.1722 4.47382 17.5448 4.4884 18.9174 4.46821C19.4527 4.45923 19.6552 4.64096 19.6472 5.185C19.6277 7.14466 19.6403 9.11219 19.6403 11.0685Z" fill="white"/>
<path d="M38.8565 39.8164H46.5532C48.7257 39.8164 50.899 39.8164 53.073 39.8164C53.7593 39.8164 53.8211 39.8848 53.8222 40.5612C53.8222 43.3655 53.8222 46.1699 53.8222 48.9742C53.8222 49.9086 53.8222 49.9097 52.8877 49.9097H9.88005C9.27039 49.9097 8.66073 49.8974 8.04993 49.9097C7.67476 49.9198 7.52835 49.7751 7.44714 49.4083C7.3156 48.8015 7.48717 48.217 7.48488 47.6214C7.47001 44.6331 7.48488 41.6448 7.46772 38.6565C7.46772 38.1394 7.62786 37.9207 8.14715 37.7591C11.7525 36.6374 15.3475 35.4876 18.9059 34.2313C19.4881 34.0249 19.6094 34.1034 19.6094 34.7248C19.6094 38.4826 19.6094 42.2401 19.6094 45.9971V46.7274C20.0806 46.5445 20.2957 46.1766 20.5691 45.8951C23.6356 42.7542 26.7274 39.6291 29.7379 36.4344C32.1788 33.8432 34.5294 31.1701 36.57 28.2524C36.7402 28.0039 36.9896 27.8177 37.2792 27.723C39.7361 26.8761 42.177 25.9843 44.6408 25.1598C47.1766 24.3107 49.7342 23.5198 52.2827 22.7055C52.5114 22.6314 52.7768 22.6045 52.8443 22.2837C52.9735 23.1811 52.6224 23.9663 52.3273 24.7414C51.0405 28.1145 48.7551 30.7752 46.0671 33.1544C44.0494 34.9492 42.0832 36.7933 40.109 38.6318C39.7246 39.0087 39.2374 39.2869 38.8565 39.8164Z" fill="white"/>
<path d="M67.5417 34.3727V49.0595C67.5417 49.9076 67.5417 49.9098 66.6929 49.9098H56.2327C55.424 49.9098 55.4114 49.8986 55.4114 49.0876C55.4114 41.3521 55.4114 33.6166 55.4114 25.8812C55.4114 24.6932 55.2113 23.5076 55.4011 22.3141C55.4583 21.9529 55.5464 21.7476 55.925 21.641C57.945 21.0476 59.9821 20.5193 62.0239 20.0022C63.679 19.5826 65.3409 19.2169 67.0132 18.8513C67.4296 18.7582 67.5371 18.8894 67.5417 19.2427C67.5417 19.3549 67.5417 19.4671 67.5417 19.5793V34.3727Z" fill="white"/>
</svg>
