<svg width="20" height="20" viewBox="0 0 20 20" fill="none" xmlns="http://www.w3.org/2000/svg">
<path d="M5.86899 0.671875H13.6744C16.6479 0.671875 19.0638 3.08783 19.0638 6.06131V13.8667C19.0638 15.2961 18.496 16.6669 17.4853 17.6776C16.4746 18.6883 15.1038 19.2561 13.6744 19.2561H5.86899C2.89551 19.2561 0.479553 16.8402 0.479553 13.8667V6.06131C0.479553 4.63195 1.04737 3.26112 2.05808 2.2504C3.0688 1.23969 4.43962 0.671875 5.86899 0.671875ZM5.68315 2.5303C4.79595 2.5303 3.9451 2.88274 3.31776 3.51008C2.69042 4.13742 2.33798 4.98828 2.33798 5.87547V14.0525C2.33798 15.9017 3.83401 17.3977 5.68315 17.3977H13.8602C14.7474 17.3977 15.5983 17.0453 16.2256 16.4179C16.853 15.7906 17.2054 14.9397 17.2054 14.0525V5.87547C17.2054 4.02634 15.7094 2.5303 13.8602 2.5303H5.68315ZM14.6501 3.92412C14.9581 3.92412 15.2535 4.0465 15.4714 4.26432C15.6892 4.48215 15.8116 4.77759 15.8116 5.08564C15.8116 5.39369 15.6892 5.68913 15.4714 5.90696C15.2535 6.12478 14.9581 6.24716 14.6501 6.24716C14.342 6.24716 14.0466 6.12478 13.8287 5.90696C13.6109 5.68913 13.4885 5.39369 13.4885 5.08564C13.4885 4.77759 13.6109 4.48215 13.8287 4.26432C14.0466 4.0465 14.342 3.92412 14.6501 3.92412ZM9.77169 5.31794C11.0039 5.31794 12.1856 5.80744 13.057 6.67874C13.9283 7.55005 14.4178 8.7318 14.4178 9.96401C14.4178 11.1962 13.9283 12.378 13.057 13.2493C12.1856 14.1206 11.0039 14.6101 9.77169 14.6101C8.53947 14.6101 7.35773 14.1206 6.48642 13.2493C5.61512 12.378 5.12562 11.1962 5.12562 9.96401C5.12562 8.7318 5.61512 7.55005 6.48642 6.67874C7.35773 5.80744 8.53947 5.31794 9.77169 5.31794ZM9.77169 7.17637C9.03236 7.17637 8.32331 7.47007 7.80053 7.99285C7.27774 8.51563 6.98405 9.22468 6.98405 9.96401C6.98405 10.7033 7.27774 11.4124 7.80053 11.9352C8.32331 12.458 9.03236 12.7516 9.77169 12.7516C10.511 12.7516 11.2201 12.458 11.7428 11.9352C12.2656 11.4124 12.5593 10.7033 12.5593 9.96401C12.5593 9.22468 12.2656 8.51563 11.7428 7.99285C11.2201 7.47007 10.511 7.17637 9.77169 7.17637Z" fill="white"/>
</svg>
