<svg width="204" height="52" viewBox="0 0 204 52" fill="none" xmlns="http://www.w3.org/2000/svg">
<path d="M95.5968 3.756V24H91.8168V15.152H82.3108V24H78.5308V3.756H82.3108V12.464H91.8168V3.756H95.5968ZM111.662 9.636V24H109.548C109.09 24 108.801 23.79 108.68 23.37L108.442 22.222C107.854 22.8193 107.205 23.3047 106.496 23.678C105.786 24.042 104.951 24.224 103.99 24.224C103.206 24.224 102.51 24.0933 101.904 23.832C101.306 23.5613 100.802 23.1833 100.392 22.698C99.981 22.2127 99.6683 21.6387 99.4536 20.976C99.2483 20.304 99.1456 19.5667 99.1456 18.764V9.636H102.604V18.764C102.604 19.6413 102.804 20.3227 103.206 20.808C103.616 21.284 104.228 21.522 105.04 21.522C105.637 21.522 106.197 21.3913 106.72 21.13C107.242 20.8593 107.737 20.4907 108.204 20.024V9.636H111.662ZM115.09 24V9.636H117.204C117.652 9.636 117.946 9.846 118.086 10.266L118.31 11.33C118.562 11.05 118.824 10.7933 119.094 10.56C119.374 10.3267 119.668 10.126 119.976 9.958C120.294 9.79 120.63 9.65933 120.984 9.566C121.348 9.46333 121.745 9.412 122.174 9.412C123.08 9.412 123.822 9.65933 124.4 10.154C124.988 10.6393 125.427 11.288 125.716 12.1C125.94 11.624 126.22 11.218 126.556 10.882C126.892 10.5367 127.261 10.2567 127.662 10.042C128.064 9.82733 128.488 9.66867 128.936 9.566C129.394 9.46333 129.851 9.412 130.308 9.412C131.102 9.412 131.806 9.53333 132.422 9.776C133.038 10.0187 133.556 10.3733 133.976 10.84C134.396 11.3067 134.714 11.876 134.928 12.548C135.152 13.22 135.264 13.99 135.264 14.858V24H131.806V14.858C131.806 13.9433 131.606 13.2573 131.204 12.8C130.803 12.3333 130.215 12.1 129.44 12.1C129.086 12.1 128.754 12.1607 128.446 12.282C128.148 12.4033 127.882 12.5807 127.648 12.814C127.424 13.038 127.247 13.3227 127.116 13.668C126.986 14.0133 126.92 14.41 126.92 14.858V24H123.448V14.858C123.448 13.8967 123.252 13.1967 122.86 12.758C122.478 12.3193 121.913 12.1 121.166 12.1C120.662 12.1 120.191 12.226 119.752 12.478C119.323 12.7207 118.922 13.0567 118.548 13.486V24H115.09ZM146.139 17.868C145.141 17.9147 144.301 18.0033 143.619 18.134C142.938 18.2553 142.392 18.414 141.981 18.61C141.571 18.806 141.277 19.0347 141.099 19.296C140.922 19.5573 140.833 19.842 140.833 20.15C140.833 20.7567 141.011 21.1907 141.365 21.452C141.729 21.7133 142.201 21.844 142.779 21.844C143.489 21.844 144.1 21.718 144.613 21.466C145.136 21.2047 145.645 20.8127 146.139 20.29V17.868ZM138.215 11.638C139.867 10.126 141.855 9.37 144.179 9.37C145.019 9.37 145.771 9.51 146.433 9.79C147.096 10.0607 147.656 10.4433 148.113 10.938C148.571 11.4233 148.916 12.0067 149.149 12.688C149.392 13.3693 149.513 14.116 149.513 14.928V24H147.945C147.619 24 147.367 23.9533 147.189 23.86C147.012 23.7573 146.872 23.5567 146.769 23.258L146.461 22.222C146.097 22.5487 145.743 22.838 145.397 23.09C145.052 23.3327 144.693 23.538 144.319 23.706C143.946 23.874 143.545 24 143.115 24.084C142.695 24.1773 142.229 24.224 141.715 24.224C141.109 24.224 140.549 24.1447 140.035 23.986C139.522 23.818 139.079 23.5707 138.705 23.244C138.332 22.9173 138.043 22.5113 137.837 22.026C137.632 21.5407 137.529 20.976 137.529 20.332C137.529 19.968 137.59 19.6087 137.711 19.254C137.833 18.89 138.029 18.5447 138.299 18.218C138.579 17.8913 138.939 17.5833 139.377 17.294C139.816 17.0047 140.353 16.7527 140.987 16.538C141.631 16.3233 142.378 16.1507 143.227 16.02C144.077 15.88 145.047 15.796 146.139 15.768V14.928C146.139 13.9667 145.934 13.2573 145.523 12.8C145.113 12.3333 144.52 12.1 143.745 12.1C143.185 12.1 142.719 12.1653 142.345 12.296C141.981 12.4267 141.659 12.576 141.379 12.744C141.099 12.9027 140.843 13.0473 140.609 13.178C140.385 13.3087 140.133 13.374 139.853 13.374C139.611 13.374 139.405 13.3133 139.237 13.192C139.069 13.0613 138.934 12.912 138.831 12.744L138.215 11.638ZM156.004 11.4C156.293 11.1107 156.597 10.8447 156.914 10.602C157.241 10.35 157.581 10.14 157.936 9.972C158.3 9.79467 158.687 9.65933 159.098 9.566C159.509 9.46333 159.957 9.412 160.442 9.412C161.226 9.412 161.921 9.54733 162.528 9.818C163.135 10.0793 163.639 10.4527 164.04 10.938C164.451 11.414 164.759 11.988 164.964 12.66C165.179 13.3227 165.286 14.0553 165.286 14.858V24H161.828V14.858C161.828 13.9807 161.627 13.304 161.226 12.828C160.825 12.3427 160.213 12.1 159.392 12.1C158.795 12.1 158.235 12.2353 157.712 12.506C157.189 12.7767 156.695 13.1453 156.228 13.612V24H152.77V9.636H154.884C155.332 9.636 155.626 9.846 155.766 10.266L156.004 11.4ZM84.6488 39.388C85.3582 39.388 85.9742 39.2993 86.4968 39.122C87.0288 38.9447 87.4628 38.702 87.7988 38.394C88.1442 38.0767 88.4008 37.7033 88.5688 37.274C88.7368 36.8447 88.8208 36.3733 88.8208 35.86C88.8208 34.8333 88.4802 34.0447 87.7988 33.494C87.1268 32.9433 86.0955 32.668 84.7048 32.668H82.2968V39.388H84.6488ZM94.3368 50H90.9348C90.2908 50 89.8242 49.748 89.5348 49.244L85.2788 42.762C85.1202 42.5193 84.9428 42.3467 84.7468 42.244C84.5602 42.1413 84.2802 42.09 83.9068 42.09H82.2968V50H78.5308V29.756H84.7048C86.0768 29.756 87.2528 29.9007 88.2328 30.19C89.2222 30.47 90.0295 30.8667 90.6548 31.38C91.2895 31.8933 91.7562 32.5093 92.0548 33.228C92.3535 33.9373 92.5028 34.7213 92.5028 35.58C92.5028 36.2613 92.4002 36.9053 92.1948 37.512C91.9988 38.1187 91.7095 38.6693 91.3268 39.164C90.9535 39.6587 90.4868 40.0927 89.9268 40.466C89.3762 40.8393 88.7462 41.1333 88.0368 41.348C88.2795 41.488 88.5035 41.656 88.7088 41.852C88.9142 42.0387 89.1008 42.2627 89.2688 42.524L94.3368 50ZM104.301 41.166C104.301 40.718 104.236 40.298 104.105 39.906C103.984 39.5047 103.797 39.1547 103.545 38.856C103.293 38.5573 102.971 38.324 102.579 38.156C102.197 37.9787 101.749 37.89 101.235 37.89C100.237 37.89 99.448 38.1747 98.8693 38.744C98.3 39.3133 97.936 40.1207 97.7773 41.166H104.301ZM97.7073 43.252C97.7633 43.9893 97.894 44.6287 98.0993 45.17C98.3047 45.702 98.5753 46.1453 98.9113 46.5C99.2473 46.8453 99.644 47.1067 100.101 47.284C100.568 47.452 101.081 47.536 101.641 47.536C102.201 47.536 102.682 47.4707 103.083 47.34C103.494 47.2093 103.849 47.0647 104.147 46.906C104.455 46.7473 104.721 46.6027 104.945 46.472C105.179 46.3413 105.403 46.276 105.617 46.276C105.907 46.276 106.121 46.3833 106.261 46.598L107.255 47.858C106.873 48.306 106.443 48.684 105.967 48.992C105.491 49.2907 104.992 49.5333 104.469 49.72C103.956 49.8973 103.429 50.0233 102.887 50.098C102.355 50.1727 101.837 50.21 101.333 50.21C100.335 50.21 99.406 50.0467 98.5473 49.72C97.6887 49.384 96.942 48.894 96.3073 48.25C95.6727 47.5967 95.1733 46.794 94.8093 45.842C94.4453 44.8807 94.2633 43.77 94.2633 42.51C94.2633 41.53 94.422 40.6107 94.7393 39.752C95.0567 38.884 95.5093 38.1327 96.0973 37.498C96.6947 36.854 97.418 36.3453 98.2673 35.972C99.126 35.5987 100.092 35.412 101.165 35.412C102.071 35.412 102.906 35.5567 103.671 35.846C104.437 36.1353 105.095 36.56 105.645 37.12C106.196 37.6707 106.625 38.352 106.933 39.164C107.251 39.9667 107.409 40.886 107.409 41.922C107.409 42.4447 107.353 42.7993 107.241 42.986C107.129 43.1633 106.915 43.252 106.597 43.252H97.7073ZM118.768 38.436C118.675 38.5853 118.577 38.6927 118.474 38.758C118.372 38.814 118.241 38.842 118.082 38.842C117.914 38.842 117.732 38.7953 117.536 38.702C117.35 38.6087 117.13 38.506 116.878 38.394C116.626 38.2727 116.337 38.1653 116.01 38.072C115.693 37.9787 115.315 37.932 114.876 37.932C114.195 37.932 113.658 38.0767 113.266 38.366C112.884 38.6553 112.692 39.0333 112.692 39.5C112.692 39.808 112.79 40.0693 112.986 40.284C113.192 40.4893 113.458 40.6713 113.784 40.83C114.12 40.9887 114.498 41.1333 114.918 41.264C115.338 41.3853 115.763 41.5207 116.192 41.67C116.631 41.8193 117.06 41.992 117.48 42.188C117.9 42.3747 118.274 42.6173 118.6 42.916C118.936 43.2053 119.202 43.5553 119.398 43.966C119.604 44.3767 119.706 44.8713 119.706 45.45C119.706 46.1407 119.58 46.78 119.328 47.368C119.086 47.9467 118.722 48.4507 118.236 48.88C117.751 49.3 117.149 49.6313 116.43 49.874C115.721 50.1073 114.9 50.224 113.966 50.224C113.472 50.224 112.986 50.1773 112.51 50.084C112.044 50 111.591 49.8787 111.152 49.72C110.723 49.5613 110.322 49.3747 109.948 49.16C109.584 48.9453 109.262 48.712 108.982 48.46L109.78 47.144C109.883 46.9853 110.004 46.864 110.144 46.78C110.284 46.696 110.462 46.654 110.676 46.654C110.891 46.654 111.092 46.7147 111.278 46.836C111.474 46.9573 111.698 47.088 111.95 47.228C112.202 47.368 112.496 47.4987 112.832 47.62C113.178 47.7413 113.612 47.802 114.134 47.802C114.545 47.802 114.895 47.7553 115.184 47.662C115.483 47.5593 115.726 47.4287 115.912 47.27C116.108 47.1113 116.248 46.9293 116.332 46.724C116.426 46.5093 116.472 46.29 116.472 46.066C116.472 45.73 116.37 45.4547 116.164 45.24C115.968 45.0253 115.702 44.8387 115.366 44.68C115.04 44.5213 114.662 44.3813 114.232 44.26C113.812 44.1293 113.378 43.9893 112.93 43.84C112.492 43.6907 112.058 43.518 111.628 43.322C111.208 43.1167 110.83 42.86 110.494 42.552C110.168 42.244 109.902 41.866 109.696 41.418C109.5 40.97 109.402 40.4287 109.402 39.794C109.402 39.206 109.519 38.646 109.752 38.114C109.986 37.582 110.326 37.12 110.774 36.728C111.232 36.3267 111.796 36.0093 112.468 35.776C113.15 35.5333 113.934 35.412 114.82 35.412C115.81 35.412 116.71 35.5753 117.522 35.902C118.334 36.2287 119.011 36.658 119.552 37.19L118.768 38.436ZM128.665 35.412C129.729 35.412 130.695 35.5847 131.563 35.93C132.44 36.2753 133.187 36.7653 133.803 37.4C134.428 38.0347 134.909 38.8093 135.245 39.724C135.581 40.6387 135.749 41.6607 135.749 42.79C135.749 43.9287 135.581 44.9553 135.245 45.87C134.909 46.7847 134.428 47.564 133.803 48.208C133.187 48.852 132.44 49.3467 131.563 49.692C130.695 50.0373 129.729 50.21 128.665 50.21C127.592 50.21 126.616 50.0373 125.739 49.692C124.862 49.3467 124.11 48.852 123.485 48.208C122.869 47.564 122.388 46.7847 122.043 45.87C121.707 44.9553 121.539 43.9287 121.539 42.79C121.539 41.6607 121.707 40.6387 122.043 39.724C122.388 38.8093 122.869 38.0347 123.485 37.4C124.11 36.7653 124.862 36.2753 125.739 35.93C126.616 35.5847 127.592 35.412 128.665 35.412ZM128.665 47.55C129.86 47.55 130.742 47.1487 131.311 46.346C131.89 45.5433 132.179 44.3673 132.179 42.818C132.179 41.2687 131.89 40.088 131.311 39.276C130.742 38.464 129.86 38.058 128.665 38.058C127.452 38.058 126.551 38.4687 125.963 39.29C125.384 40.102 125.095 41.278 125.095 42.818C125.095 44.358 125.384 45.534 125.963 46.346C126.551 47.1487 127.452 47.55 128.665 47.55ZM150.763 35.636V50H148.649C148.192 50 147.903 49.79 147.781 49.37L147.543 48.222C146.955 48.8193 146.307 49.3047 145.597 49.678C144.888 50.042 144.053 50.224 143.091 50.224C142.307 50.224 141.612 50.0933 141.005 49.832C140.408 49.5613 139.904 49.1833 139.493 48.698C139.083 48.2127 138.77 47.6387 138.555 46.976C138.35 46.304 138.247 45.5667 138.247 44.764V35.636H141.705V44.764C141.705 45.6413 141.906 46.3227 142.307 46.808C142.718 47.284 143.329 47.522 144.141 47.522C144.739 47.522 145.299 47.3913 145.821 47.13C146.344 46.8593 146.839 46.4907 147.305 46.024V35.636H150.763ZM157.454 38.128C157.902 37.2693 158.434 36.5973 159.05 36.112C159.666 35.6173 160.394 35.37 161.234 35.37C161.897 35.37 162.429 35.5147 162.83 35.804L162.606 38.394C162.559 38.562 162.489 38.6833 162.396 38.758C162.312 38.8233 162.195 38.856 162.046 38.856C161.906 38.856 161.696 38.8327 161.416 38.786C161.145 38.7393 160.879 38.716 160.618 38.716C160.235 38.716 159.895 38.772 159.596 38.884C159.297 38.996 159.027 39.1593 158.784 39.374C158.551 39.5793 158.341 39.8313 158.154 40.13C157.977 40.4287 157.809 40.7693 157.65 41.152V50H154.192V35.636H156.222C156.577 35.636 156.824 35.7013 156.964 35.832C157.104 35.9533 157.197 36.1773 157.244 36.504L157.454 38.128ZM174.517 38.674C174.414 38.8047 174.312 38.9073 174.209 38.982C174.116 39.0567 173.976 39.094 173.789 39.094C173.612 39.094 173.439 39.0427 173.271 38.94C173.103 38.828 172.902 38.7067 172.669 38.576C172.436 38.436 172.156 38.3147 171.829 38.212C171.512 38.1 171.115 38.044 170.639 38.044C170.032 38.044 169.5 38.156 169.043 38.38C168.586 38.5947 168.203 38.9073 167.895 39.318C167.596 39.7287 167.372 40.228 167.223 40.816C167.074 41.3947 166.999 42.0527 166.999 42.79C166.999 43.5553 167.078 44.2367 167.237 44.834C167.405 45.4313 167.643 45.9353 167.951 46.346C168.259 46.7473 168.632 47.0553 169.071 47.27C169.51 47.4753 170.004 47.578 170.555 47.578C171.106 47.578 171.549 47.5127 171.885 47.382C172.23 47.242 172.52 47.0927 172.753 46.934C172.986 46.766 173.187 46.6167 173.355 46.486C173.532 46.346 173.728 46.276 173.943 46.276C174.223 46.276 174.433 46.3833 174.573 46.598L175.567 47.858C175.184 48.306 174.769 48.684 174.321 48.992C173.873 49.2907 173.406 49.5333 172.921 49.72C172.445 49.8973 171.95 50.0233 171.437 50.098C170.933 50.1727 170.429 50.21 169.925 50.21C169.038 50.21 168.203 50.0467 167.419 49.72C166.635 49.384 165.949 48.8987 165.361 48.264C164.773 47.6293 164.306 46.8547 163.961 45.94C163.625 45.016 163.457 43.966 163.457 42.79C163.457 41.7353 163.606 40.76 163.905 39.864C164.213 38.9587 164.661 38.1793 165.249 37.526C165.837 36.8633 166.565 36.3453 167.433 35.972C168.301 35.5987 169.3 35.412 170.429 35.412C171.502 35.412 172.44 35.5847 173.243 35.93C174.055 36.2753 174.783 36.77 175.427 37.414L174.517 38.674ZM186.743 41.166C186.743 40.718 186.677 40.298 186.547 39.906C186.425 39.5047 186.239 39.1547 185.987 38.856C185.735 38.5573 185.413 38.324 185.021 38.156C184.638 37.9787 184.19 37.89 183.677 37.89C182.678 37.89 181.889 38.1747 181.311 38.744C180.741 39.3133 180.377 40.1207 180.219 41.166H186.743ZM180.149 43.252C180.205 43.9893 180.335 44.6287 180.541 45.17C180.746 45.702 181.017 46.1453 181.353 46.5C181.689 46.8453 182.085 47.1067 182.543 47.284C183.009 47.452 183.523 47.536 184.083 47.536C184.643 47.536 185.123 47.4707 185.525 47.34C185.935 47.2093 186.29 47.0647 186.589 46.906C186.897 46.7473 187.163 46.6027 187.387 46.472C187.62 46.3413 187.844 46.276 188.059 46.276C188.348 46.276 188.563 46.3833 188.703 46.598L189.697 47.858C189.314 48.306 188.885 48.684 188.409 48.992C187.933 49.2907 187.433 49.5333 186.911 49.72C186.397 49.8973 185.87 50.0233 185.329 50.098C184.797 50.1727 184.279 50.21 183.775 50.21C182.776 50.21 181.847 50.0467 180.989 49.72C180.13 49.384 179.383 48.894 178.749 48.25C178.114 47.5967 177.615 46.794 177.251 45.842C176.887 44.8807 176.705 43.77 176.705 42.51C176.705 41.53 176.863 40.6107 177.181 39.752C177.498 38.884 177.951 38.1327 178.539 37.498C179.136 36.854 179.859 36.3453 180.709 35.972C181.567 35.5987 182.533 35.412 183.607 35.412C184.512 35.412 185.347 35.5567 186.113 35.846C186.878 36.1353 187.536 36.56 188.087 37.12C188.637 37.6707 189.067 38.352 189.375 39.164C189.692 39.9667 189.851 40.886 189.851 41.922C189.851 42.4447 189.795 42.7993 189.683 42.986C189.571 43.1633 189.356 43.252 189.039 43.252H180.149ZM201.21 38.436C201.116 38.5853 201.018 38.6927 200.916 38.758C200.813 38.814 200.682 38.842 200.524 38.842C200.356 38.842 200.174 38.7953 199.978 38.702C199.791 38.6087 199.572 38.506 199.32 38.394C199.068 38.2727 198.778 38.1653 198.452 38.072C198.134 37.9787 197.756 37.932 197.318 37.932C196.636 37.932 196.1 38.0767 195.708 38.366C195.325 38.6553 195.134 39.0333 195.134 39.5C195.134 39.808 195.232 40.0693 195.428 40.284C195.633 40.4893 195.899 40.6713 196.226 40.83C196.562 40.9887 196.94 41.1333 197.36 41.264C197.78 41.3853 198.204 41.5207 198.634 41.67C199.072 41.8193 199.502 41.992 199.922 42.188C200.342 42.3747 200.715 42.6173 201.042 42.916C201.378 43.2053 201.644 43.5553 201.84 43.966C202.045 44.3767 202.148 44.8713 202.148 45.45C202.148 46.1407 202.022 46.78 201.77 47.368C201.527 47.9467 201.163 48.4507 200.678 48.88C200.192 49.3 199.59 49.6313 198.872 49.874C198.162 50.1073 197.341 50.224 196.408 50.224C195.913 50.224 195.428 50.1773 194.952 50.084C194.485 50 194.032 49.8787 193.594 49.72C193.164 49.5613 192.763 49.3747 192.39 49.16C192.026 48.9453 191.704 48.712 191.424 48.46L192.222 47.144C192.324 46.9853 192.446 46.864 192.586 46.78C192.726 46.696 192.903 46.654 193.118 46.654C193.332 46.654 193.533 46.7147 193.72 46.836C193.916 46.9573 194.14 47.088 194.392 47.228C194.644 47.368 194.938 47.4987 195.274 47.62C195.619 47.7413 196.053 47.802 196.576 47.802C196.986 47.802 197.336 47.7553 197.626 47.662C197.924 47.5593 198.167 47.4287 198.354 47.27C198.55 47.1113 198.69 46.9293 198.774 46.724C198.867 46.5093 198.914 46.29 198.914 46.066C198.914 45.73 198.811 45.4547 198.606 45.24C198.41 45.0253 198.144 44.8387 197.808 44.68C197.481 44.5213 197.103 44.3813 196.674 44.26C196.254 44.1293 195.82 43.9893 195.372 43.84C194.933 43.6907 194.499 43.518 194.07 43.322C193.65 43.1167 193.272 42.86 192.936 42.552C192.609 42.244 192.343 41.866 192.138 41.418C191.942 40.97 191.844 40.4287 191.844 39.794C191.844 39.206 191.96 38.646 192.194 38.114C192.427 37.582 192.768 37.12 193.216 36.728C193.673 36.3267 194.238 36.0093 194.91 35.776C195.591 35.5333 196.375 35.412 197.262 35.412C198.251 35.412 199.152 35.5753 199.964 35.902C200.776 36.2287 201.452 36.658 201.994 37.19L201.21 38.436Z" fill="#474F7A"/>
<path d="M19.5907 10.8498C20.237 9.92546 20.8215 8.9933 21.5249 8.13293C22.9413 6.38898 24.7521 4.99223 26.814 4.05318C29.3007 2.90468 32.016 2.31052 34.7647 2.31338C36.0412 2.31338 37.3211 2.27973 38.5862 2.4693C42.2464 3.01783 45.5429 4.33362 48.2412 6.90127C48.3372 6.99213 48.4345 7.08074 48.5363 7.16487C48.5953 7.19223 48.6575 7.21221 48.7216 7.22433C48.7216 6.44472 48.7445 5.68755 48.7136 4.93374C48.6918 4.41214 48.9172 4.24724 49.4216 4.24837C55.217 4.25734 61.0123 4.25734 66.8077 4.24837C67.3041 4.24837 67.5237 4.39756 67.5214 4.92702C67.5031 8.30867 67.5031 11.6911 67.5214 15.0742C67.5214 15.5106 67.3556 15.6867 66.9312 15.7989C64.3652 16.4719 61.8054 17.164 59.2516 17.8752C58.086 18.2016 56.9376 18.5897 55.7915 18.979C55.31 19.1427 55.2608 18.8847 55.2597 18.5449C55.2539 17.4422 55.2597 16.3384 55.2597 15.2357C55.2597 14.4416 55.2597 14.4427 54.4761 14.4505C54.1144 14.4696 53.7518 14.4651 53.3907 14.4371C52.9045 14.3787 52.8119 14.5829 52.9331 14.9822C53.3163 16.2083 53.2523 17.4904 53.4021 18.7445C53.5096 19.6419 53.338 19.7889 52.447 20.0659C49.2981 21.043 46.2063 22.177 43.0871 23.2382C41.8289 23.6644 40.5901 24.1277 39.34 24.5674C39.2256 24.6078 39.0929 24.7278 38.9728 24.5944C38.8527 24.4609 38.9476 24.3521 39.0094 24.2343C39.5813 23.1754 40.0812 22.0907 40.3316 20.9117C40.8304 18.5639 40.9585 16.2734 39.2118 14.2935C38.5011 13.4619 37.5313 12.8825 36.4518 12.6445C35.0209 12.3136 33.7901 12.6221 32.6246 13.3871C31.6409 14.0332 31.1376 15.0114 30.8196 16.0871C30.4843 17.1619 30.4582 18.3067 30.7441 19.3951C30.8219 19.6801 30.7007 19.8707 30.369 19.8775C30.1974 19.8775 30.0258 19.8775 29.8542 19.8775C26.671 19.8775 23.4889 19.8887 20.3056 19.8674C19.7646 19.8674 19.5827 20.0087 19.5862 20.5572C19.609 23.8664 19.601 27.1755 19.5953 30.4835C19.5953 31.6736 19.7451 31.4224 18.5807 31.8239C16.4692 32.5531 14.3246 33.1913 12.1856 33.8431C10.8622 34.2424 9.5251 34.6036 8.18225 34.9547C7.36671 35.1689 7.32553 35.1196 7.32553 34.2559C7.32553 28.1813 7.32362 22.1064 7.31981 16.0311C7.31981 15.5319 7.53828 14.8981 7.21687 14.5672C6.89545 14.2363 6.24119 14.4696 5.7299 14.4606C4.30088 14.4367 2.87149 14.4315 1.44171 14.4449C0.856072 14.4517 0.661624 14.2396 0.667343 13.6507C0.695939 10.8105 0.678781 7.96916 0.681068 5.12557C0.681068 4.29212 0.716527 4.25622 1.59613 4.2551C5.98077 4.2551 10.3654 4.2551 14.7501 4.2551C16.1227 4.2551 17.4952 4.26968 18.8678 4.24949C19.4031 4.24051 19.6056 4.42224 19.5976 4.96628C19.5781 6.92595 19.5907 8.89347 19.5907 10.8498Z" fill="#1F2544"/>
<path d="M38.8069 39.5976H46.5037C48.6762 39.5976 50.8494 39.5976 53.0235 39.5976C53.7098 39.5976 53.7715 39.666 53.7727 40.3424C53.7727 43.1467 53.7727 45.9511 53.7727 48.7554C53.7727 49.6898 53.7727 49.6909 52.8382 49.6909H9.83047C9.22081 49.6909 8.61116 49.6786 8.00036 49.6909C7.62518 49.701 7.47877 49.5563 7.39756 49.1895C7.26602 48.5826 7.43759 47.9982 7.43531 47.4026C7.42044 44.4143 7.4353 41.426 7.41815 38.4377C7.41815 37.9206 7.57828 37.7018 8.09758 37.5403C11.7029 36.4186 15.2979 35.2688 18.8564 34.0124C19.4386 33.806 19.5598 33.8846 19.5598 34.506C19.5598 38.2638 19.5598 42.0212 19.5598 45.7783V46.5086C20.0311 46.3257 20.2461 45.9578 20.5195 45.6762C23.5861 42.5354 26.6778 39.4102 29.6884 36.2155C32.1293 33.6243 34.4798 30.9512 36.5204 28.0336C36.6906 27.7851 36.94 27.5989 37.2296 27.5041C39.6865 26.6572 42.1274 25.7655 44.5912 24.941C47.1271 24.0918 49.6846 23.301 52.2331 22.4866C52.4618 22.4126 52.7272 22.3857 52.7947 22.0649C52.9239 22.9623 52.5728 23.7475 52.2777 24.5226C50.9909 27.8956 48.7055 30.5564 46.0176 32.9356C43.9998 34.7304 42.0336 36.5745 40.0594 38.413C39.6751 38.7899 39.1878 39.0681 38.8069 39.5976Z" fill="#81689D"/>
<path d="M67.4917 34.1538V48.8406C67.4917 49.6887 67.4917 49.6909 66.643 49.6909H56.1827C55.3741 49.6909 55.3615 49.6797 55.3615 48.8687C55.3615 41.1332 55.3615 33.3977 55.3615 25.6623C55.3615 24.4743 55.1613 23.2887 55.3512 22.0952C55.4084 21.734 55.4965 21.5287 55.8751 21.4221C57.895 20.8287 59.9322 20.3004 61.9739 19.7833C63.629 19.3637 65.291 18.998 66.9633 18.6324C67.3796 18.5393 67.4871 18.6705 67.4917 19.0238C67.4917 19.136 67.4917 19.2482 67.4917 19.3604V34.1538Z" fill="#81689D"/>
</svg>
