<svg width="71" height="72" viewBox="0 0 71 72" fill="none" xmlns="http://www.w3.org/2000/svg">
<path d="M42.043 0.0281514C44.0624 0.49736 45.7178 1.50897 46.8608 3.27695C47.593 4.37397 47.9848 5.66289 47.9869 6.98183C47.9869 8.55086 48.0226 10.1199 47.9869 11.6889C47.9681 12.3571 48.2121 12.5147 48.839 12.5129C54.4808 12.4916 60.1231 12.4916 65.7662 12.5129C68.3937 12.5129 70.2424 14.1344 70.5127 16.717C70.5711 17.3021 70.5039 17.893 70.3155 18.45C70.1271 19.0071 69.822 19.5174 69.4204 19.947C69.1464 20.2567 69.1388 20.4406 69.396 20.7709C70.95 22.7641 70.9425 24.7236 69.3716 26.7243C69.1182 27.0452 69.1839 27.2085 69.4054 27.4881C71.3911 30.0087 70.7079 33.1186 67.8513 34.5488C67.4985 34.7252 67.4103 34.8622 67.5924 35.2301C69.0694 38.2105 66.7928 41.799 63.2756 41.6695C61.8999 41.6188 60.5204 41.6695 59.1466 41.6695C59.0753 41.9454 59.2648 42.0599 59.3643 42.2006C60.8531 44.246 61.7834 46.6439 62.0637 49.1581C62.344 51.6723 61.9645 54.2162 60.9627 56.5392C59.9609 58.8622 58.3713 60.8842 56.3504 62.406C54.3295 63.9279 51.947 64.897 49.4377 65.2181C46.0857 65.678 42.9213 64.9742 40.0141 63.2062C39.4755 62.8796 39.0757 62.4667 39.2953 61.7742C39.5299 61.0065 40.3163 60.7682 41.1309 61.2543C42.4413 62.0311 43.8764 62.5753 45.3725 62.8627C52.0015 64.1765 58.698 59.4844 59.7115 52.7954C60.7438 45.9524 56.4289 39.8846 49.6348 38.629C43.0884 37.4185 36.4969 42.0993 35.4665 48.6982C34.9598 51.9564 35.5754 54.9819 37.4428 57.7258C37.5217 57.8422 37.6043 57.9567 37.6718 58.0787C38.004 58.6717 37.8971 59.2967 37.4072 59.6477C36.9173 59.9987 36.2323 59.9011 35.8063 59.3268C34.6733 57.7987 33.8647 56.055 33.4302 54.203C33.3211 53.7957 33.2377 53.382 33.1806 52.9643C33.1299 52.5101 32.8784 52.4388 32.4992 52.5007C31.3206 52.6884 30.842 53.2514 30.8402 54.447C30.8402 55.3366 30.8402 56.2262 30.8402 57.1159C30.8214 59.1804 29.4044 60.6143 27.3567 60.6312C25.7627 60.6437 24.1705 60.6437 22.5802 60.6312C20.4894 60.618 19.0461 59.2085 18.9935 57.1196C18.9692 56.1605 18.9429 55.1977 18.9935 54.2405C19.048 53.3397 18.5675 52.9455 17.8224 52.6471C17.0773 52.3487 16.5255 52.4594 15.9887 53.0356C15.3525 53.7225 14.675 54.3719 14.0068 55.0269C12.5053 56.4909 10.5516 56.5284 9.06135 55.0739C7.90147 53.9478 6.75472 52.8104 5.63425 51.6468C4.1553 50.1115 4.19097 48.1784 5.69244 46.6525C6.38312 45.9524 7.07004 45.2467 7.77948 44.5673C8.41385 43.9611 8.23368 43.3305 7.94652 42.6436C7.68189 42.0092 7.28211 41.6564 6.57267 41.6695C5.61173 41.6845 4.65267 41.6695 3.69173 41.6695C1.52211 41.6582 0.105103 40.3313 0.0375367 38.1673C-0.0125122 36.5532 -0.0125122 34.9379 0.0375367 33.3213C0.101349 31.2456 1.49209 29.8924 3.58288 29.8267C4.58887 29.7948 5.59672 29.7873 6.6027 29.8267C7.42663 29.8586 7.72879 29.3481 8.01782 28.7099C8.30685 28.0718 8.33126 27.5125 7.78697 26.987C7.07253 26.2763 6.36183 25.5562 5.65489 24.8268C4.1797 23.3084 4.18908 21.3396 5.67741 19.8325C6.80351 18.6989 7.92962 17.5728 9.05572 16.4542C10.5103 15.0222 12.4622 15.0015 13.9561 16.4054C14.6712 17.0792 15.3769 17.768 16.0394 18.4925C16.6025 19.1137 17.188 19.1362 17.9294 18.8153C18.6332 18.5093 19.0348 18.1133 18.9973 17.295C18.9541 16.336 18.9692 15.375 18.9973 14.416C19.048 12.4228 20.2135 11.0639 22.1879 10.9007C24.077 10.7298 25.9781 10.7393 27.8654 10.9288C29.6258 11.1165 30.8045 12.4997 30.8326 14.279C30.8477 15.3093 30.857 16.3435 30.8326 17.3701C30.8139 18.0889 31.163 18.4812 31.7917 18.7515C32.4749 19.0461 33.1055 19.2432 33.7155 18.6051C34.4137 17.8787 35.1437 17.1862 35.8475 16.4655C36.321 15.9381 36.9572 15.584 37.655 15.4595C38.1279 15.3882 38.2067 15.1386 38.203 14.7388C38.1898 13.5676 38.1936 12.3965 38.203 11.2272C38.203 10.3845 38.6253 9.86465 39.284 9.84775C39.9071 9.83086 40.3576 10.3019 40.442 11.0958C40.4733 11.4453 40.4859 11.7961 40.4796 12.1469C40.4796 18.9598 40.4927 25.7727 40.4796 32.5856C40.4796 34.0871 40.7855 35.4572 41.6563 36.694C41.9397 37.0994 42.2194 37.2064 42.7111 37.0337C46.3879 35.7481 50.0214 35.8982 53.5836 37.471C54.1167 37.7075 54.2593 37.6474 54.2556 37.0487C54.2502 36.2459 54.4891 35.4604 54.9406 34.7965C55.1527 34.4793 55.1283 34.3085 54.8148 34.0458C52.5626 32.169 52.3224 29.6409 54.1749 27.3868C54.3851 27.1315 54.3794 27.0114 54.1749 26.7505C52.5608 24.7817 52.5326 22.7397 54.096 20.7447C54.3306 20.4444 54.3456 20.2567 54.096 19.9676C52.9211 18.5788 52.6321 17.0135 53.2927 15.315C53.4992 14.7857 53.2514 14.7782 52.8629 14.7801C51.3614 14.7876 49.86 14.7876 48.3585 14.7801C46.5455 14.7801 45.8098 14.0293 45.7779 12.2295C45.7403 10.2644 45.9524 8.2881 45.6596 6.33995C45.4815 5.23134 44.9307 4.21661 44.0981 3.46321C43.2655 2.70982 42.201 2.26279 41.0802 2.1959C40.6241 2.16399 40.4889 2.38358 40.4852 2.75895C40.4852 3.41584 40.4852 4.07273 40.4852 4.72587C40.4852 5.02992 40.4852 5.33584 40.474 5.63989C40.4195 6.63837 39.9897 7.1864 39.2878 7.16763C38.5859 7.14887 38.2067 6.60458 38.203 5.57983C38.203 4.71273 38.248 3.84376 38.1936 2.98042C38.1016 1.57467 38.6497 0.581819 39.9353 0L42.043 0.0281514ZM38.203 25.9679C38.203 23.4398 38.203 20.9098 38.203 18.3817C38.203 18.1696 38.34 17.86 38.0491 17.7642C37.8088 17.6835 37.6212 17.9088 37.456 18.0739C36.6734 18.8472 35.9132 19.6448 35.1081 20.3956C34.1115 21.334 32.9216 21.5217 31.6472 21.1163C30.1457 20.6339 28.9089 19.8682 28.6443 18.134C28.4566 16.9234 28.5936 15.6941 28.5542 14.4873C28.5223 13.5282 28.1788 13.151 27.2404 13.1416C25.6951 13.1266 24.1498 13.1266 22.6046 13.1416C21.7262 13.1416 21.3133 13.562 21.2908 14.4347C21.2739 15.3732 21.2758 16.3116 21.2908 17.25C21.3114 18.9204 20.602 20.1009 19.0555 20.8066C17.3663 21.5742 15.8405 21.5217 14.4779 20.1553C13.8154 19.4928 13.1641 18.8265 12.4885 18.1715C11.7696 17.4715 11.2629 17.464 10.5591 18.1546C9.47425 19.2219 8.39821 20.2986 7.33092 21.3847C6.65526 22.0697 6.65713 22.6252 7.33092 23.3291C8.0047 24.0329 8.75543 24.7536 9.46112 25.4724C10.7167 26.7524 10.7036 28.1919 10.0354 29.7497C9.39917 31.2343 8.34627 32.0695 6.70404 32.0995C5.7431 32.1183 4.78404 32.0995 3.8231 32.0995C2.71014 32.0995 2.32163 32.4749 2.32163 33.5597C2.31412 35.0349 2.31412 36.5095 2.32163 37.9834C2.32163 38.9856 2.67261 39.3422 3.66733 39.3591C4.60575 39.3741 5.54417 39.3591 6.48258 39.3591C8.31813 39.376 9.48552 40.2788 10.1424 41.9867C10.773 43.6383 10.5347 45.0459 9.2434 46.2734C8.58088 46.904 7.94088 47.5552 7.30464 48.2103C6.66839 48.8653 6.64399 49.3814 7.28024 50.0345C8.37756 51.1607 9.48677 52.2699 10.6079 53.3622C11.231 53.974 11.8184 53.974 12.449 53.3622C13.0252 52.8123 13.5751 52.2361 14.1382 51.673C15.863 49.9445 16.8878 49.7436 19.1043 50.7083C20.5438 51.3352 21.2608 52.45 21.2796 54.0116C21.2927 55.0419 21.2795 56.0761 21.2908 57.1027C21.3058 57.8854 21.6755 58.2757 22.4601 58.287C24.0992 58.3095 25.7377 58.3095 27.3755 58.287C28.1694 58.287 28.5166 57.9116 28.5335 57.1046C28.5523 56.1211 28.5335 55.1377 28.5467 54.1542C28.5729 52.8404 29.0046 51.7143 30.1833 51.003C30.7857 50.6408 31.4313 50.2879 32.1276 50.2297C32.8953 50.1659 33.0492 49.768 33.128 49.1036C33.6554 44.6311 35.8344 41.1459 39.528 38.5934C39.9034 38.3325 39.9465 38.1579 39.6875 37.7713C38.6649 36.2702 38.1397 34.4858 38.1861 32.6701C38.2292 30.4573 38.203 28.2163 38.203 25.9679ZM62.0669 32.7095C63.3169 32.6325 64.9122 32.8615 66.4906 32.5969C67.3878 32.4467 67.9396 31.8649 68.1798 31.0128C68.42 30.1607 68.1647 29.4532 67.5491 28.8432C66.9861 28.2802 66.2673 28.1976 65.5372 28.1938C63.0347 28.1826 60.5323 28.1826 58.0298 28.1938C57.6559 28.199 57.2833 28.2393 56.9169 28.3139C56.4668 28.4045 56.0595 28.6417 55.7586 28.9884C55.4577 29.3352 55.2803 29.7719 55.254 30.2302C55.1564 31.7317 56.0723 32.6701 57.7258 32.7039C59.0659 32.7264 60.3928 32.7095 62.0669 32.7095ZM61.7066 14.8045C60.3046 14.8045 58.9026 14.8045 57.4987 14.8045C56.1662 14.8176 55.2597 15.7035 55.2465 16.9703C55.2465 18.2729 56.1549 19.2225 57.4987 19.2225C60.3027 19.2376 63.1079 19.2376 65.9144 19.2225C67.3014 19.2225 68.2717 18.2616 68.2605 16.9703C68.2605 15.7316 67.2714 14.8176 65.9088 14.8064C64.5218 14.7951 63.1123 14.8045 61.7066 14.8045ZM61.7591 21.5329C60.3327 21.5329 58.9063 21.5179 57.4818 21.5329C56.1549 21.5498 55.2822 22.3888 55.2522 23.635C55.2221 24.9262 56.1249 25.936 57.4499 25.951C60.3002 25.986 63.1517 25.986 66.0045 25.951C66.305 25.9574 66.6036 25.9029 66.8825 25.7907C67.1613 25.6785 67.4144 25.5109 67.6267 25.2981C67.8389 25.0854 68.0059 24.8318 68.1174 24.5527C68.2289 24.2736 68.2827 23.9748 68.2755 23.6744C68.2549 22.4582 67.2958 21.5517 65.9764 21.5367C64.5669 21.5198 63.163 21.5329 61.761 21.5329H61.7591ZM61.0947 39.3535C61.8886 39.3535 62.6844 39.3666 63.4783 39.3535C64.7808 39.3291 65.6817 38.5277 65.7493 37.3509C65.8225 36.069 65.0286 35.0311 63.7167 34.9598C62.0124 34.8725 60.3047 34.8725 58.6004 34.9598C57.2866 35.0255 56.4833 36.0446 56.5359 37.3284C56.5903 38.5202 57.4743 39.331 58.7749 39.3572C59.552 39.3666 60.3252 39.3535 61.0966 39.3535H61.0947Z" fill="#1F2544"/>
<path d="M47.5456 71.9841C41.3258 71.9166 36.097 69.5968 31.8365 65.0642C31.4612 64.6682 31.2021 64.2441 31.433 63.6754C31.7877 62.8008 32.7468 62.7107 33.4788 63.5121C34.7115 64.8592 36.1265 66.0273 37.6829 66.9824C41.1838 69.1258 45.2864 70.0738 49.3728 69.6835C53.4592 69.2932 57.3081 67.5858 60.34 64.8184C64.8444 60.6762 66.8489 55.4942 66.558 49.4133C66.4815 48.1989 66.2821 46.9953 65.963 45.821C65.7397 44.9502 66.0156 44.3778 66.7137 44.1826C67.365 43.9949 67.9431 44.4003 68.1552 45.2599C69.8931 52.328 68.5155 58.7412 63.9041 64.3623C60.1974 68.8798 55.3157 71.3329 49.5126 71.9654C49.4197 71.9757 49.3264 71.9814 49.2329 71.9822L47.5456 71.9841Z" fill="#1F2544"/>
<path d="M46.0313 57.0296C45.8366 57.0187 45.6466 56.9655 45.4745 56.8738C45.3024 56.782 45.1523 56.654 45.0347 56.4984C43.4188 54.6479 41.7953 52.8048 40.1888 50.9467C39.6876 50.3687 39.7195 49.6874 40.2169 49.2576C40.6767 48.8635 41.3674 48.9123 41.8441 49.4453C43.0809 50.8191 44.3084 52.2024 45.502 53.6137C45.8774 54.0585 46.0651 54.1993 46.5287 53.6607C48.6326 51.2114 50.791 48.809 52.9287 46.3898C53.0796 46.2111 53.24 46.0407 53.4092 45.8793C53.9197 45.4157 54.5353 45.3969 54.9876 45.8155C55.4399 46.234 55.4887 46.8684 55.0439 47.3939C54.1374 48.4674 53.2027 49.5147 52.2737 50.5676C50.572 52.497 48.8679 54.4258 47.1612 56.3539C46.8609 56.6936 46.5437 56.9958 46.0313 57.0296Z" fill="#1F2544"/>
<path d="M24.9446 46.859C22.5247 46.8751 20.1662 46.098 18.2299 44.6466C16.2935 43.1953 14.8858 41.1496 14.2222 38.8224C14.0514 38.2368 14.0346 37.6963 14.5732 37.3059C15.2414 36.8104 16.0878 37.152 16.3581 38.0698C16.7897 39.5356 17.4842 40.8531 18.569 41.9267C21.1346 44.4435 24.1995 45.2599 27.606 44.1789C30.9336 43.1279 32.9756 40.7461 33.6588 37.3209C34.5503 32.8465 31.6524 28.3384 27.2287 27.1748C22.7131 25.9886 18.0604 28.4416 16.5533 32.8053C16.4688 33.0492 16.4087 33.3007 16.3149 33.541C16.0484 34.2335 15.5004 34.5376 14.8923 34.3443C14.2842 34.1509 13.9858 33.5935 14.1791 32.8803C14.9955 29.8887 16.7391 27.5858 19.4342 26.0637C26.4236 22.1223 35.1152 26.5798 36.0123 34.5488C36.7537 41.0859 31.5548 46.8665 24.9446 46.859Z" fill="#1F2544"/>
<path d="M18.9485 35.7256C18.9485 32.3473 21.593 29.7516 24.9901 29.7629C28.2858 29.7741 30.9959 32.503 30.9621 35.7687C30.9283 39.0344 28.1919 41.7746 24.9413 41.7746C24.1493 41.7754 23.3651 41.619 22.6339 41.3146C21.9028 41.0102 21.2394 40.5638 20.682 40.0012C20.1246 39.4386 19.6844 38.771 19.3869 38.0371C19.0893 37.3031 18.9403 36.5175 18.9485 35.7256ZM24.9037 39.4792C25.395 39.4888 25.8832 39.3999 26.3396 39.2178C26.796 39.0357 27.2113 38.7641 27.5611 38.419C27.9109 38.0739 28.1882 37.6623 28.3764 37.2084C28.5647 36.7546 28.6602 36.2676 28.6574 35.7762C28.6605 34.7837 28.2735 33.8296 27.5798 33.1197C26.8861 32.4098 25.9411 32.001 24.9487 31.9813C22.9649 31.9419 21.1669 33.7155 21.1575 35.7256C21.162 36.7181 21.558 37.6687 22.2594 38.3709C22.9609 39.0731 23.9112 39.47 24.9037 39.4755V39.4792Z" fill="#1F2544"/>
</svg>
