<svg width="72" height="72" viewBox="0 0 72 72" fill="none" xmlns="http://www.w3.org/2000/svg">
<g clip-path="url(#clip0_72_106)">
<path d="M46.6535 0.894531C48.2796 1.40028 49.6174 2.28285 50.3987 3.84769C50.7882 4.60796 50.9926 5.44919 50.995 6.30304C50.9871 12.848 50.9871 19.3929 50.995 25.9379C50.995 27.0148 50.5855 27.4373 49.4842 27.4452C47.1743 27.4591 44.8663 27.4452 42.5564 27.4452C41.6022 27.4452 41.6022 27.4452 41.96 28.296C42.3258 29.1925 42.5564 30.1366 42.8566 31.0509C43.6954 33.5558 41.6638 36.741 38.7356 37.2844C38.0252 37.4207 37.2945 37.4131 36.5871 37.2621C35.8796 37.111 35.2099 36.8196 34.6175 36.4052C34.0252 35.9908 33.5225 35.4617 33.1392 34.8496C32.7559 34.2374 32.4998 33.5547 32.3863 32.8418C32.3205 32.315 32.3604 31.7804 32.5035 31.269C32.7476 30.1421 33.117 29.0458 33.6048 28.0005C33.8175 27.5702 33.7201 27.4373 33.247 27.4412C31.3068 27.4551 29.3686 27.4611 27.4284 27.4412C26.8718 27.4412 26.7148 27.6634 26.7167 28.183C26.7346 30.6721 26.7167 33.1591 26.7167 35.6482C26.7244 35.8784 26.7191 36.1088 26.7009 36.3384C26.5895 37.3003 25.8441 37.7604 24.9654 37.3578C23.9696 36.8729 22.9498 36.4387 21.91 36.0568C21.3633 35.8723 20.8107 35.7077 20.264 35.5272C19.0951 35.1405 18.1608 35.5828 17.4153 36.4277C16.5804 37.3717 16.4214 38.4863 16.9323 39.6505C17.4074 40.7414 18.294 41.3086 19.4529 41.4474C19.7068 41.4485 19.9587 41.4035 20.1964 41.3145C21.7777 40.8795 23.3145 40.2971 24.7865 39.5752C25.8421 39.0595 26.683 39.5097 26.6969 40.6759C26.7346 43.9226 26.7247 47.1733 26.6969 50.42C26.6969 51.245 26.2993 51.61 25.4604 51.727C25.2315 51.7538 25.001 51.7657 24.7706 51.7627C18.628 51.7627 12.4853 51.7627 6.34272 51.7627C5.55699 51.7821 4.77233 51.6933 4.01091 51.4989C2.85909 51.1663 1.84805 50.4667 1.13228 49.5069C0.416507 48.5471 0.0353415 47.3799 0.0470132 46.1836C0.0470132 33.0051 0.0470132 19.826 0.0470132 6.64615C0.0470132 3.84174 1.41867 1.93379 4.07053 1.02345C4.17986 0.985764 4.28522 0.940148 4.39257 0.898498L46.6535 0.894531ZM14.4991 49.3906H23.5739C23.9516 49.3906 24.3412 49.4243 24.3392 48.8631C24.3392 46.8361 24.3392 44.8085 24.3392 42.7802C24.3392 42.4153 24.2001 42.3479 23.8661 42.4867C23.2479 42.7425 22.6276 42.9984 21.9895 43.1927C21.087 43.4684 20.1766 43.8155 19.2224 43.752C15.9781 43.5359 13.6721 40.4181 14.3639 37.2527C14.9742 34.4661 17.9044 32.4075 20.7709 33.2682C21.7276 33.53 22.6682 33.8472 23.5878 34.2182C24.2696 34.5138 24.3333 34.4761 24.3372 33.7403C24.3372 31.9196 24.3193 30.0989 24.3491 28.2802C24.3491 27.6574 24.1623 27.4274 23.5182 27.4353C20.9777 27.4631 18.4391 27.4353 15.8986 27.4512C14.4434 27.4512 13.9107 26.6578 14.5508 25.3588C15.2768 23.9174 15.8523 22.4055 16.2683 20.8467C16.4205 20.2759 16.3894 19.6719 16.1794 19.1197C15.9693 18.5675 15.5909 18.0949 15.0975 17.7686C14.5795 17.4162 13.9671 17.2277 13.3401 17.2277C12.7132 17.2277 12.1008 17.4162 11.5828 17.7686C10.7877 18.3378 10.0144 19.6488 10.4139 20.9241C10.8673 22.4473 11.4348 23.9343 12.1116 25.3726C12.7279 26.636 12.217 27.4531 10.8215 27.4512C8.28093 27.4512 5.74037 27.469 3.19983 27.4373C2.54779 27.4373 2.3192 27.6158 2.32119 28.2941C2.34504 34.1925 2.32118 40.0889 2.33907 45.9872C2.33907 48.0697 3.67494 49.3886 5.76622 49.3926C8.6785 49.3966 11.5888 49.3906 14.4991 49.3906ZM36.5907 3.13171C33.5432 3.13171 30.4958 3.13171 27.4463 3.13171C26.9295 3.13171 26.6929 3.27253 26.7009 3.83183C26.7227 5.76754 26.7148 7.70128 26.7009 9.63501C26.7009 10.0614 26.7784 10.2657 27.2475 10.0198C27.5545 9.85811 27.876 9.72531 28.2077 9.62311C29.633 9.18877 31.0186 8.57394 32.5811 8.87342C33.9781 9.15063 35.2084 9.96795 36.0036 11.147C36.7987 12.326 37.0941 13.771 36.8252 15.1665C36.6918 15.8632 36.4182 16.5257 36.0209 17.114C35.6235 17.7022 35.1107 18.2039 34.5135 18.5888C33.9163 18.9736 33.247 19.2337 32.5462 19.3531C31.8454 19.4726 31.1275 19.449 30.4361 19.2839C29.3745 19.0567 28.3421 18.7101 27.3588 18.2505C26.8539 18.0026 26.6849 18.0522 26.6949 18.6631C26.7227 20.4818 26.6949 22.3005 26.6949 24.1212C26.6949 25.0851 26.6949 25.087 27.653 25.089C30.1459 25.089 32.6387 25.0751 35.1315 25.0989C36.6821 25.1128 37.1194 25.8645 36.4495 27.233C35.7565 28.6637 35.1885 30.1514 34.7519 31.6796C34.6065 32.1674 34.6225 32.689 34.7976 33.1671C35.0651 33.9271 35.621 34.5519 36.3455 34.9072C37.0701 35.2626 37.9055 35.32 38.672 35.0671C40.0079 34.6585 41.1251 32.9231 40.5784 31.4317C40.0317 29.9402 39.5427 28.4309 38.8469 26.997C38.4494 26.1759 38.668 25.4797 39.3718 25.212C39.7027 25.1058 40.0505 25.0621 40.3975 25.0831C42.8903 25.0831 45.3832 25.0672 47.876 25.095C48.5121 25.095 48.7109 24.8966 48.7089 24.26C48.6891 18.3656 48.7089 12.4692 48.693 6.57277C48.693 4.43475 47.379 3.14361 45.2301 3.13766C42.3616 3.12378 39.4751 3.13171 36.5907 3.13171ZM14.4852 3.13171C11.5292 3.13171 8.57513 3.11783 5.61911 3.13171C3.71271 3.14361 2.353 4.50814 2.34902 6.4141C2.33709 12.3799 2.34903 18.3457 2.32716 24.3096C2.32716 24.9403 2.56769 25.1029 3.14617 25.0831C4.64704 25.0553 6.14789 25.0831 7.64677 25.0692C8.19543 25.0692 8.95879 25.3191 9.23709 24.9561C9.5154 24.5932 8.96078 23.9645 8.79777 23.4607C8.43399 22.2965 7.91713 21.1422 8.00261 19.9106C8.22923 16.6758 11.0421 14.4822 14.2466 14.9523C17.1331 15.3787 19.1528 18.2307 18.5862 21.0609C18.3562 22.1657 18.0138 23.2443 17.5644 24.2798C17.2444 25.0375 17.2603 25.0732 18.1151 25.0732C19.8234 25.0732 21.5316 25.0732 23.2399 25.0732C24.3511 25.0732 24.3531 25.0732 24.3531 23.9724C24.3531 21.5091 24.3333 19.0439 24.3671 16.5806C24.3869 15.1268 25.1622 14.6806 26.4504 15.3192C27.8187 15.9881 29.2428 16.5369 30.7065 16.9594C31.0365 17.0566 31.3685 17.1934 31.7223 17.1458C32.8812 16.9911 33.7818 16.4239 34.233 15.3331C34.7181 14.155 34.5829 13.0086 33.6963 12.0507C32.923 11.2177 31.9748 10.8746 30.8198 11.2078C29.2237 11.6716 27.6696 12.2687 26.1741 12.9928C25.361 13.3894 24.6195 13.0681 24.4386 12.2689C24.3706 11.9308 24.3392 11.5863 24.3452 11.2415C24.3452 8.82384 24.3233 6.40419 24.3452 3.98652C24.3452 3.32806 24.1464 3.10791 23.4784 3.11386C20.4866 3.14758 17.4849 3.12973 14.4852 3.12973V3.13171Z" fill="#1F2544"/>
<path d="M71.0429 49.1447C69.3545 53.4551 67.6668 57.7662 65.9798 62.0779C65.284 63.8629 64.6061 65.6479 63.8964 67.421C62.9263 69.8446 60.9901 71.1893 58.541 71.1774C58.1254 71.1641 57.7147 71.0844 57.3244 70.9414C52.458 69.3309 47.7268 67.3714 42.9539 65.5031C41.4298 64.9068 39.9058 64.3118 38.3817 63.7181C37.3718 63.3215 37.1114 62.8018 37.503 61.7804C38.3459 59.5869 39.2106 57.4032 40.0595 55.2117C40.3636 54.4184 40.3557 54.4184 39.5347 54.4303C38.4711 54.456 37.4195 54.3212 36.354 54.2319C34.3025 54.0574 32.0542 52.0701 31.9568 49.1209C31.8753 46.6576 33.6703 44.3986 36.1314 43.8433C37.5408 43.524 38.8727 43.6906 40.0913 44.5494C41.0338 45.1755 41.905 45.9024 42.6895 46.7171C43.1149 47.1832 43.2461 47.0424 43.4389 46.5366C44.2877 44.2975 45.1664 42.0682 46.0431 39.839C46.4784 38.7244 46.9674 38.5062 48.0787 38.9326C50.9651 40.0433 53.8489 41.1592 56.73 42.2804C58.05 42.7941 58.2249 43.6251 57.233 44.6346C56.2967 45.5886 55.3067 46.493 54.4121 47.4867C53.0743 48.9781 53.1439 50.8583 54.5076 52.0324C55.9607 53.276 58.3442 52.8257 59.195 51.1201C59.5091 50.4894 59.4753 49.7714 59.4932 49.0892C59.5595 47.8243 59.5342 46.5563 59.4177 45.2951C59.2944 44.242 60.0995 43.6152 61.0935 43.9921C64.1787 45.1622 67.256 46.372 70.3273 47.562C70.6257 47.6904 70.8785 47.9053 71.0529 48.1788L71.0429 49.1447ZM39.6341 52.078V52.0007C40.304 52.0007 40.9739 52.0146 41.6418 52.0007C43.0691 51.965 43.5284 52.6115 43.0075 53.9562C42.0672 56.3838 41.1329 58.8114 40.1668 61.2271C39.968 61.707 40.0575 61.9054 40.5406 62.0918C46.1385 64.2437 51.7265 66.4214 57.3224 68.5753C59.197 69.2972 60.9841 68.4979 61.7276 66.6415C62.2584 65.3167 62.7633 63.9819 63.2822 62.6511L68.2221 49.9718C68.3553 49.6286 68.5601 49.3133 67.9935 49.1031C66.0911 48.393 64.2026 47.6513 62.314 46.9055C61.8906 46.737 61.7912 46.8698 61.8012 47.2844C61.8191 48.042 61.8211 48.8016 61.7873 49.5592C61.7157 51.2193 61.2823 52.7127 59.9445 53.863C58.9652 54.6859 57.7261 55.1372 56.4458 55.1372C55.1655 55.1372 53.9263 54.6859 52.947 53.863C51.9668 53.0398 51.3261 51.8841 51.1482 50.6181C50.9702 49.3522 51.2675 48.0652 51.9829 47.0047C52.5944 46.0823 53.2992 45.225 54.0861 44.4462C54.4837 44.0496 54.4976 43.875 53.9351 43.6648C52.1459 42.9964 50.3568 42.3102 48.5816 41.5843C48.025 41.3582 47.8342 41.5169 47.6374 42.0345C46.717 44.468 45.7628 46.8877 44.8106 49.3093C44.2917 50.6302 43.4449 50.7909 42.4708 49.7655C41.4121 48.6404 40.2726 47.5938 39.0615 46.6338C38.0517 45.8405 37.0299 45.8643 35.9624 46.4157C35.4069 46.7088 34.9571 47.1679 34.6762 47.7288C34.3953 48.2896 34.2973 48.9241 34.3959 49.5434C34.6424 50.9039 35.4972 51.7825 36.8669 51.9491C37.7794 52.0503 38.7077 52.0364 39.6301 52.078H39.6341Z" fill="#1F2544"/>
</g>
<defs>
<clipPath id="clip0_72_106">
<rect width="71" height="70.2828" fill="white" transform="translate(0.0429688 0.894531)"/>
</clipPath>
</defs>
</svg>
