<svg width="73" height="73" viewBox="0 0 73 73" fill="none" xmlns="http://www.w3.org/2000/svg">
<path d="M62.4282 29.1426C62.3712 29.7731 62.2838 30.4871 61.9021 31.1043C61.6609 31.4955 61.7597 31.7348 62.0654 32.0121C62.5022 32.409 62.9105 32.8419 63.3245 33.2635C65.0811 35.0525 65.0868 37.4263 63.3378 39.2152C62.6896 39.8761 62.0363 40.5293 61.378 41.175C60.7399 41.8017 60.4474 41.815 59.7258 41.27C58.7763 40.5445 57.7356 40.385 56.6683 40.9661C55.6371 41.5358 55.1718 42.4512 55.2174 43.6248C55.2621 44.1956 55.4815 44.7387 55.846 45.1801C56.3815 45.898 56.3607 46.1942 55.7207 46.8361C53.1266 49.4353 50.5312 52.0307 47.9345 54.6223C47.587 54.966 47.4825 55.2148 47.7332 55.7047C48.1368 56.5162 48.2788 57.4328 48.1397 58.3283C48.0006 59.2239 47.5872 60.0542 46.9565 60.705C46.3303 61.3601 45.5154 61.8037 44.6253 61.9739C43.7352 62.1441 42.8142 62.0324 41.9905 61.6545C41.4207 61.3848 41.0542 61.4266 40.6497 61.9033C40.2448 62.3677 39.8089 62.8042 39.3451 63.2098C38.5899 63.9132 37.5924 64.2981 36.5604 64.2843C35.5285 64.2705 34.5416 63.8591 33.8055 63.1358C33.0668 62.4331 32.3546 61.7058 31.6406 60.9784C31.0424 60.3707 31.031 60.1125 31.5266 59.4478C32.4895 58.1545 32.4477 56.7644 31.4165 55.7104C30.3853 54.6565 28.9477 54.571 27.6298 55.5433C26.9594 56.039 26.6802 56.0162 26.0422 55.3781C23.4253 52.7669 20.8064 50.1614 18.2104 47.5312C17.8021 47.1172 17.4907 47.0241 16.9342 47.2995C16.1283 47.6888 15.2208 47.8162 14.3388 47.664C13.4568 47.5118 12.6445 47.0875 12.0157 46.4506C11.3613 45.8223 10.9213 45.004 10.758 44.1116C10.5947 43.2193 10.7165 42.2982 11.106 41.4789C11.3966 40.8883 11.3187 40.5597 10.8478 40.1685C10.4029 39.7775 9.98242 39.3595 9.58869 38.917C8.86903 38.1767 8.4636 37.1866 8.45723 36.1541C8.45086 35.1216 8.84403 34.1267 9.5545 33.3775C10.2287 32.6463 10.9503 31.9608 11.6568 31.26C12.3632 30.5593 12.593 30.5384 13.4077 31.1366C14.3572 31.8297 15.3599 31.9437 16.4101 31.3968C17.4603 30.8498 17.8857 29.9687 17.88 28.8368C17.8643 28.286 17.6748 27.7543 17.3387 27.3176C16.6665 26.3681 16.6779 26.2332 17.5078 25.4033C20.0183 22.8909 22.5213 20.367 25.0546 17.8755C25.4933 17.4425 25.5731 17.1158 25.3015 16.5347C24.9217 15.7242 24.8039 14.8155 24.9646 13.935C25.1252 13.0545 25.5563 12.246 26.1979 11.6218C26.8204 10.9835 27.6257 10.5541 28.5026 10.3929C29.3795 10.2316 30.2848 10.3465 31.0937 10.7217C31.6634 10.9895 32.0318 10.9534 32.4344 10.4748C32.8251 10.029 33.2438 9.60847 33.6878 9.21573C34.4385 8.48918 35.4435 8.08503 36.4882 8.08964C37.5329 8.09425 38.5344 8.50727 39.2786 9.24042C40.0382 9.95827 40.7523 10.716 41.4967 11.4452C41.9924 11.9314 41.9981 12.3948 41.5594 12.936C40.5928 14.1457 40.6478 15.6535 41.6505 16.6809C42.6247 17.6798 44.1877 17.7577 45.4107 16.8708C46.1456 16.3353 46.3925 16.3505 47.0553 17.0133C49.6551 19.6074 52.2587 22.1958 54.8414 24.8089C55.263 25.2362 55.5783 25.3539 56.1708 25.0748C59.0535 23.7113 62.4016 25.8743 62.4282 29.1426ZM29.4225 53.1999C32.2957 53.1999 34.5879 55.9459 33.6555 58.654C33.1636 60.0802 33.5738 60.7809 34.5347 61.5406C34.6088 61.5994 34.6696 61.6735 34.7379 61.74C35.9476 62.9288 37.2618 62.925 38.4848 61.7267C39.0925 61.1285 39.6888 60.5189 40.2946 59.9188C41.0276 59.1952 41.2441 59.18 42.0436 59.7839C42.585 60.1971 43.257 60.4014 43.9367 60.3596C44.6164 60.3177 45.2583 60.0325 45.7449 59.556C46.1996 59.0665 46.4677 58.4327 46.5024 57.7655C46.5371 57.0983 46.3362 56.4401 45.9348 55.906C45.3252 55.0989 45.3347 54.8862 46.0583 54.157C47.1103 53.0973 48.1624 52.0396 49.2278 50.9932C49.524 50.7007 49.6532 50.4652 49.2904 50.1139C48.3542 49.208 47.437 48.2813 46.5235 47.3527C46.437 47.2382 46.3091 47.162 46.1673 47.1404C46.0254 47.1187 45.8806 47.1533 45.7639 47.2368C44.9279 47.6729 43.9744 47.8302 43.0426 47.6857C42.1108 47.5412 41.2497 47.1024 40.5852 46.4335C39.2672 45.0947 38.9577 43.1785 39.8046 41.3061C39.9623 40.9566 39.9186 40.7553 39.6622 40.5047C38.764 39.6273 37.8714 38.7442 37.0035 37.846C36.656 37.4851 36.3939 37.5079 36.054 37.846C35.0019 38.9056 33.9365 39.9501 32.875 40.9984C32.1343 41.7295 31.9577 41.7409 31.1316 41.1275C30.0454 40.3185 28.4103 40.4173 27.474 41.3478C26.4618 42.3562 26.3783 43.8584 27.2727 45.032C27.8558 45.7916 27.8425 46.0195 27.1493 46.7222C26.0706 47.8217 25.0015 48.9289 23.9038 50.0076C23.5544 50.3513 23.5354 50.5773 23.9038 50.9286C24.8097 51.7965 25.6908 52.6928 26.5625 53.5873C26.8151 53.8437 27.0335 53.9063 27.3677 53.7202C27.9931 53.3731 28.6977 53.1938 29.413 53.1999H29.4225ZM29.3199 24.6285C32.5939 24.6152 34.6924 27.9177 33.3193 30.9581C33.1294 31.3721 33.1503 31.6227 33.4808 31.9361C34.3543 32.7704 35.2089 33.6244 36.0445 34.4979C36.4034 34.8777 36.6636 34.891 37.0339 34.5074C38.0556 33.4515 39.102 32.4185 40.1465 31.3911C40.9061 30.6485 41.1264 30.6409 41.9582 31.2638C42.4854 31.6777 43.1463 31.8836 43.8154 31.8423C44.4844 31.801 45.115 31.5154 45.5873 31.0397C46.0568 30.5632 46.341 29.9348 46.3887 29.2675C46.4364 28.6002 46.2444 27.9377 45.8474 27.3992C45.1961 26.5181 45.2037 26.3415 45.9937 25.5439C47.0439 24.4823 48.0827 23.4226 49.1613 22.3819C49.4956 22.0591 49.5848 21.8274 49.1993 21.4628C48.2896 20.5968 47.4085 19.7023 46.5406 18.8041C46.2633 18.5192 46.0336 18.4888 45.6746 18.6788C44.8333 19.1359 43.8596 19.2875 42.9191 19.1079C39.987 18.5572 38.4259 15.5738 39.6736 12.8581C39.8882 12.391 39.8787 12.0985 39.4837 11.7529C39.0393 11.3636 38.6481 10.9154 38.2189 10.5052C37.1517 9.4873 35.7938 9.4873 34.7323 10.5052C34.0505 11.1623 33.4029 11.8478 32.7174 12.5106C32.0318 13.1734 31.8077 13.1658 31.0728 12.6037C30.5386 12.1821 29.8704 11.9671 29.1906 11.9981C28.5108 12.0292 27.865 12.3041 27.3715 12.7727C26.8971 13.2612 26.6149 13.9045 26.5765 14.5843C26.5381 15.2642 26.7462 15.9351 27.1626 16.4739C27.7456 17.2336 27.7323 17.4861 27.0562 18.1717C25.9909 19.2485 24.9217 20.3233 23.8393 21.383C23.5202 21.6964 23.4784 21.9337 23.8183 22.2642C24.7375 23.1548 25.6376 24.0626 26.5321 24.9779C26.7866 25.2381 27.0107 25.2913 27.3411 25.1109C27.9446 24.7819 28.6233 24.6157 29.3104 24.6285H29.3199ZM53.5405 43.4102C53.5577 43.1271 53.5894 42.845 53.6355 42.5651C54.2527 39.6653 57.2 38.1688 59.8834 39.426C60.3506 39.6463 60.643 39.6368 60.9792 39.2475C61.359 38.8031 61.8167 38.4119 62.225 37.9846C63.2429 36.9173 63.2429 35.5633 62.2155 34.4979C61.5413 33.7991 60.8386 33.1287 60.1626 32.4336C59.5796 31.8335 59.5739 31.5601 60.0676 30.8954C60.9906 29.6515 60.9431 28.1475 59.9499 27.141C58.9092 26.0908 57.4811 26.0186 56.2144 26.9511C55.4795 27.4923 55.2155 27.4809 54.566 26.8371C53.457 25.7376 52.3461 24.638 51.256 23.5195C50.9313 23.1833 50.7071 23.1909 50.3881 23.5195C49.5335 24.4057 48.6631 25.2761 47.7769 26.1307C47.456 26.4383 47.3971 26.7004 47.5984 27.1182C48.0284 27.9178 48.1756 28.8393 48.0162 29.7332C47.4465 32.7717 44.4972 34.3156 41.6942 33.0167C41.2441 32.8097 40.9783 32.8628 40.6497 33.2066C39.8502 34.0459 39.0336 34.872 38.1809 35.6639C37.8011 36.0248 37.7745 36.2546 38.1658 36.6268C39.178 37.5896 40.1503 38.5942 41.1378 39.5817C42.1595 40.6053 42.1595 40.6053 41.4131 41.8283C41.0651 42.3719 40.9181 43.02 40.9976 43.6606C41.077 44.3011 41.3778 44.8937 41.848 45.3359C42.3193 45.7781 42.9309 46.0408 43.576 46.0783C44.2212 46.1158 44.8591 45.9256 45.3784 45.541C46.2538 44.9162 46.4779 44.9295 47.249 45.6948C48.3086 46.7469 49.3702 47.7933 50.409 48.8643C50.747 49.2118 50.9939 49.2441 51.3414 48.8757C52.1758 48.0021 53.0284 47.1476 53.8995 46.312C54.2147 46.0119 54.2337 45.7632 54.0324 45.3871C53.7028 44.7804 53.5304 44.1007 53.5311 43.4102H53.5405ZM19.5284 28.9774C19.5284 31.8525 16.7804 34.1162 14.0591 33.18C12.6405 32.69 11.9416 33.1021 11.1839 34.0592C11.0833 34.1884 10.9503 34.2947 10.8364 34.4144C9.86025 35.4551 9.85836 36.8129 10.8535 37.8517C11.4764 38.503 12.1239 39.1278 12.7525 39.7659C13.5444 40.5616 13.5577 40.7155 12.9006 41.6251C12.5963 42.024 12.4084 42.4993 12.3578 42.9984C12.3072 43.4976 12.3958 44.001 12.6139 44.4528C13.3488 46.1335 15.1586 46.5228 16.8488 45.4023C17.6768 44.8573 17.8553 44.8687 18.558 45.5619C19.6499 46.6462 20.7457 47.7287 21.8205 48.8301C22.132 49.1492 22.3542 49.21 22.6884 48.8529C23.5563 47.9471 24.4469 47.0602 25.3471 46.1942C25.6585 45.8942 25.6813 45.634 25.48 45.2618C25.1863 44.717 25.0213 44.1122 24.9977 43.4938C24.9656 42.7395 25.1275 41.9896 25.4679 41.3157C25.8084 40.6419 26.316 40.0666 26.9423 39.645C27.5685 39.2234 28.2925 38.9694 29.0449 38.9075C29.7974 38.8455 30.5531 38.9776 31.2399 39.2912C31.8096 39.5475 32.1248 39.4507 32.516 39.031C33.2244 38.2714 33.9574 37.525 34.7266 36.8243C35.2222 36.3723 35.2659 36.0552 34.7493 35.5728C33.7106 34.6062 32.7268 33.5769 31.7241 32.5685C30.9436 31.7823 30.9284 31.5924 31.5494 30.6979C32.366 29.5224 32.2483 28.0145 31.2646 27.0612C30.2809 26.1079 28.7863 26.0243 27.6241 26.8846C26.8758 27.4372 26.591 27.4296 25.9149 26.7555C24.8097 25.6502 23.7101 24.5393 22.6276 23.4112C22.3276 23.0979 22.1301 23.0903 21.8262 23.4112C20.9539 24.3152 20.0677 25.2014 19.1675 26.0699C18.8485 26.3756 18.8485 26.6396 19.0498 26.9985C19.3782 27.6024 19.5401 28.2827 19.5189 28.9698L19.5284 28.9774Z" fill="#1F2544"/>
<path d="M35.6928 2.84243C35.6928 2.25182 35.6643 1.65931 35.6928 1.0706C35.7251 0.578746 35.9663 0.193237 36.5246 0.193237C37.0829 0.193237 37.3431 0.573047 37.3583 1.0687C37.3912 2.24992 37.3912 3.43177 37.3583 4.61426C37.345 5.10611 37.0772 5.49351 36.5265 5.49351C35.9758 5.49351 35.7232 5.1137 35.6909 4.61615C35.6624 4.02744 35.6928 3.43494 35.6928 2.84243Z" fill="#1F2544"/>
<path d="M3.19433 35.3335C3.76405 35.3335 4.33377 35.3107 4.90348 35.3335C5.42383 35.3601 5.85301 35.5842 5.85301 36.1748C5.85301 36.7654 5.42573 37.0047 4.90348 37.0161C3.76405 37.0426 2.62905 37.0426 1.49848 37.0161C0.981936 37.0028 0.54895 36.7749 0.54895 36.1767C0.54895 35.5785 0.976239 35.362 1.49848 35.3335C2.0568 35.3107 2.62651 35.3354 3.19433 35.3335Z" fill="#1F2544"/>
<path d="M69.8898 35.3296C70.4329 35.3296 70.9779 35.3106 71.521 35.3296C72.0642 35.3486 72.5275 35.5499 72.5218 36.1899C72.5218 36.7881 72.0794 37.0084 71.5723 37.0198C70.4329 37.0445 69.2934 37.0445 68.1673 37.0198C67.6469 37.0065 67.2178 36.7577 67.2349 36.1671C67.252 35.5765 67.6755 35.3619 68.1844 35.3372C68.7541 35.3106 69.3238 35.3372 69.8936 35.3372L69.8898 35.3296Z" fill="#1F2544"/>
<path d="M37.385 69.5298C37.385 70.0995 37.4078 70.6693 37.385 71.239C37.3546 71.7574 37.1343 72.1885 36.5361 72.1771C35.9379 72.1657 35.7138 71.7422 35.7024 71.2276C35.6758 70.0881 35.6758 68.9538 35.7024 67.8245C35.7138 67.3041 35.9569 66.8749 36.5494 66.8844C37.1419 66.8939 37.3603 67.3174 37.3869 67.834C37.4078 68.3942 37.385 68.962 37.385 69.5298Z" fill="#1F2544"/>
<path d="M54.9686 5.74036C54.2659 7.0697 53.6772 8.45791 52.6688 9.59545C52.4257 9.86892 52.0383 9.75877 51.7649 9.51949C51.4914 9.2802 51.3471 8.95926 51.5294 8.62883C52.1732 7.4742 52.8302 6.32716 53.5177 5.19722C53.6078 5.05365 53.748 4.94857 53.9111 4.90228C54.0742 4.85598 54.2486 4.87176 54.4008 4.94655C54.5637 5.00734 54.7047 5.11535 54.8059 5.25676C54.907 5.39818 54.9637 5.56656 54.9686 5.74036Z" fill="#1F2544"/>
<path d="M54.9173 66.6547C54.9277 66.821 54.8824 66.986 54.7885 67.1236C54.6946 67.2612 54.5575 67.3635 54.3988 67.4143C54.2462 67.4884 54.0715 67.5033 53.9085 67.4563C53.7455 67.4094 53.6056 67.3038 53.5157 67.1599C52.8283 66.0318 52.1674 64.881 51.5312 63.7283C51.3413 63.3712 51.5104 63.0294 51.8218 62.7958C52.1332 62.5622 52.5491 62.5299 52.7846 62.8471C53.6193 63.989 54.3304 65.2164 54.9059 66.5085C54.918 66.5562 54.9218 66.6057 54.9173 66.6547Z" fill="#1F2544"/>
<path d="M18.1628 5.91886C18.1362 5.36623 18.3033 5.10226 18.6432 4.95603C18.7929 4.87609 18.967 4.85436 19.1318 4.89503C19.2965 4.9357 19.4405 5.03589 19.5358 5.17632C20.2803 6.29719 20.9539 7.4636 21.5526 8.66869C21.7197 9.00673 21.5526 9.32197 21.2734 9.54606C20.9943 9.77015 20.6031 9.85181 20.3657 9.57265C19.3991 8.44271 18.7971 7.07349 18.1628 5.91886Z" fill="#1F2544"/>
<path d="M6.15683 17.8032C6.27344 17.8227 6.38706 17.8572 6.49487 17.9057C7.54315 18.5001 8.59523 19.087 9.62452 19.7099C10.0575 19.9719 10.2493 20.3859 9.93787 20.8588C9.62643 21.3317 9.21434 21.3601 8.76046 21.1C7.73497 20.5132 6.71137 19.9244 5.69538 19.3205C5.34215 19.1116 5.14844 18.7888 5.28517 18.371C5.40481 17.9817 5.68017 17.788 6.15683 17.8032Z" fill="#1F2544"/>
<path d="M63.8257 21.2539C63.6742 21.2516 63.526 21.2084 63.397 21.1288C63.268 21.0493 63.1628 20.9363 63.0927 20.8019C62.9256 20.4962 62.9237 20.1486 63.1857 19.9549C64.3329 19.0873 65.5863 18.3699 66.9155 17.8204C67.2402 17.6894 67.5593 17.8945 67.7321 18.2287C67.9049 18.5629 67.8783 18.9313 67.5878 19.1326C66.4387 19.9178 65.2326 20.6161 63.9796 21.2216C63.9301 21.2398 63.8783 21.2506 63.8257 21.2539Z" fill="#1F2544"/>
<path d="M6.08474 54.5632C5.91854 54.5776 5.75223 54.5368 5.6115 54.4472C5.47078 54.3577 5.36346 54.2242 5.30611 54.0676C5.22787 53.9171 5.20787 53.7431 5.24991 53.5787C5.29196 53.4144 5.3931 53.2714 5.53401 53.1769C6.65463 52.4333 7.82247 51.7634 9.03016 51.1715C9.42327 50.9816 9.77459 51.2057 9.97969 51.576C10.2342 52.0451 10.0253 52.4211 9.62837 52.6623C8.65985 53.251 7.66854 53.8017 6.68673 54.3714C6.50866 54.4919 6.29967 54.5585 6.08474 54.5632Z" fill="#1F2544"/>
<path d="M66.9535 54.569C66.7678 54.5559 66.5886 54.4951 66.4332 54.3924C65.4837 53.8512 64.5436 53.3176 63.6074 52.7668C63.1478 52.4953 62.7984 52.1439 63.1004 51.5552C63.3453 51.0767 63.8334 50.995 64.4449 51.3406C65.4134 51.8863 66.3743 52.4427 67.3277 53.0099C67.7075 53.2321 67.9316 53.5549 67.7815 54.0164C67.6676 54.3658 67.415 54.5558 66.9535 54.569Z" fill="#1F2544"/>
<path d="M18.1529 66.6851C18.1501 66.4712 18.2102 66.2612 18.3257 66.0812C18.867 65.1317 19.4006 64.1916 19.9513 63.2554C20.2229 62.7939 20.5742 62.4483 21.1648 62.7503C21.6415 62.9933 21.7212 63.4833 21.3775 64.0948C20.8306 65.0608 20.2735 66.0211 19.7064 66.9757C19.4842 67.3555 19.1613 67.5777 18.6998 67.4276C18.538 67.3843 18.3957 67.2871 18.2963 67.1522C18.1969 67.0173 18.1463 66.8526 18.1529 66.6851Z" fill="#1F2544"/>
</svg>
