<svg width="66" height="73" viewBox="0 0 66 73" fill="none" xmlns="http://www.w3.org/2000/svg">
<path d="M33.6978 0.193237C34.1595 0.6211 34.3059 1.14842 34.2965 1.77145C34.2721 3.47915 34.2965 5.18496 34.2965 6.89266C34.3026 7.08053 34.2964 7.2686 34.2777 7.45564C34.1858 8.13121 33.7298 8.54218 33.1105 8.52529C32.9684 8.52804 32.8271 8.50239 32.6951 8.44985C32.563 8.3973 32.4428 8.31891 32.3414 8.21928C32.24 8.11966 32.1596 8.0008 32.1047 7.86967C32.0499 7.73854 32.0218 7.59777 32.022 7.45564C31.9883 5.37637 32.0033 3.29524 32.022 1.2141C32.022 0.788117 32.3242 0.49349 32.585 0.196988L33.6978 0.193237Z" fill="#1F2544"/>
<path d="M37.3049 36.0999C36.8808 35.6326 36.5543 35.46 36.0025 36.0774C33.9533 38.3574 30.4141 37.954 28.8452 35.2723C28.5562 34.7806 28.346 34.7093 27.8244 34.9439C26.884 35.3896 25.8162 35.4881 24.8101 35.2219C23.8041 34.9557 22.9247 34.342 22.3278 33.4895C22.037 33.0898 21.8474 32.9847 21.3895 33.255C20.8364 33.592 20.2111 33.7929 19.5651 33.8412C18.9192 33.8895 18.271 33.7837 17.6739 33.5327C17.0096 33.27 16.9777 33.5327 16.9983 34.0488C17.0208 34.6568 17.0171 35.2667 16.9983 35.8747C16.9702 36.7154 16.546 37.1883 15.8555 37.1977C15.1649 37.2071 14.7126 36.7229 14.7107 35.8841C14.7107 31.8344 14.6582 27.7828 14.7258 23.735C14.7764 20.6424 17.916 18.6082 20.8341 19.7097C21.397 19.918 21.5566 19.8355 21.7611 19.2838C22.6994 16.7353 25.4204 15.6225 27.9125 16.7541C28.3667 16.9605 28.5675 16.953 28.834 16.482C30.035 14.3727 32.4201 13.6127 34.6514 14.6242C35.0943 14.825 35.2275 14.7161 35.4245 14.3221C36.4248 12.3122 38.4515 11.3514 40.557 11.845C42.5987 12.3235 43.9912 14.1231 44.0043 16.3225C44.0156 17.9608 44.0231 19.6009 44.0043 21.2392C44.0043 21.759 44.1807 21.9166 44.6949 21.9316C47.6205 22.0217 49.5572 23.4629 50.6118 26.2665C51.212 27.9446 51.5291 29.7108 51.5501 31.4929C51.6946 36.3101 51.0565 41.0635 50.0488 45.7549C49.8391 46.644 49.5405 47.5097 49.1574 48.339C48.8159 49.1178 48.2454 49.3974 47.6093 49.129C46.9731 48.8607 46.731 48.2621 47.0707 47.487C48.1966 44.9367 48.4331 42.2007 48.8178 39.4946C49.2253 36.7624 49.3729 33.9977 49.2588 31.2376C49.1818 29.6463 48.9773 28.0681 48.2961 26.5949C47.5661 25.0186 46.3838 24.191 44.5973 24.206C40.9924 24.2361 37.3875 24.206 33.7825 24.2173C32.878 24.2173 32.711 24.405 32.7523 25.2963C32.7961 26.0857 33.0938 26.8397 33.6011 27.4461C34.1083 28.0524 34.798 28.4786 35.5672 28.6611C37.9636 29.2015 40.3675 29.7045 42.7695 30.213C44.1751 30.5114 44.4585 30.9355 44.0963 32.3167C43.8504 33.2681 43.584 34.2139 43.3456 35.1672C43.2941 35.4201 43.1746 35.6542 43 35.8443C42.8255 36.0344 42.6024 36.1734 42.3548 36.2463C37.8773 37.8113 34.6608 40.7501 32.7054 45.0831C32.33 45.9144 31.7502 46.1847 31.1084 45.89C30.4666 45.5954 30.294 44.993 30.6505 44.1598C31.9382 41.1028 34.0569 38.4679 36.7663 36.554C36.9371 36.432 37.106 36.3063 37.273 36.1787C37.2936 36.1674 37.2936 36.1355 37.3049 36.0999ZM23.7522 25.758C23.7522 27.4169 23.7428 29.0758 23.7522 30.7366C23.7634 32.1553 24.6548 33.0673 25.9947 33.0579C27.297 33.0579 28.1847 32.1403 28.1884 30.761C28.1997 27.4882 28.1997 24.2154 28.1884 20.9427C28.1884 19.5371 27.2708 18.6063 25.9365 18.6138C24.6511 18.6138 23.7522 19.5521 23.7428 20.9183C23.7428 22.5303 23.7522 24.1441 23.7522 25.758ZM16.9964 26.6362C16.9964 27.5239 16.9833 28.4115 16.9964 29.2972C17.0227 30.6371 17.976 31.5961 19.2371 31.5735C20.4681 31.5529 21.4139 30.6015 21.4289 29.3047C21.4502 27.507 21.4502 25.7086 21.4289 23.9095C21.4368 23.6165 21.3846 23.3249 21.2756 23.0528C21.1667 22.7806 21.0032 22.5336 20.7953 22.3269C20.5874 22.1202 20.3394 21.9582 20.0666 21.8509C19.7938 21.7435 19.5019 21.6931 19.2089 21.7027C17.9235 21.7027 17.0246 22.5847 16.9983 23.9039C16.9871 24.8141 17.004 25.7242 17.0021 26.6362H16.9964ZM41.6905 18.6457C41.6905 17.8275 41.7092 17.0093 41.6905 16.1911C41.6905 15.6039 41.4572 15.0406 41.0419 14.6253C40.6266 14.2101 40.0634 13.9768 39.4761 13.9768C38.8888 13.9768 38.3256 14.2101 37.9103 14.6253C37.495 15.0406 37.2617 15.6039 37.2617 16.1911C37.228 17.8951 37.2617 19.6028 37.2448 21.3067C37.2448 21.7533 37.395 21.9391 37.8547 21.9297C38.9307 21.911 40.0053 21.911 41.0787 21.9297C41.531 21.9297 41.7111 21.7571 41.7036 21.3105C41.6867 20.421 41.6961 19.5333 41.6961 18.6457H41.6905ZM30.5023 26.366C30.5023 28.5898 30.4891 30.8116 30.5023 33.0354C30.4982 33.3288 30.553 33.62 30.6634 33.8919C30.7738 34.1637 30.9376 34.4107 31.1451 34.6182C31.3526 34.8256 31.5996 34.9894 31.8714 35.0999C32.1433 35.2103 32.4345 35.2651 32.7279 35.261C33.9702 35.261 34.9029 34.3227 34.9348 33.0241C34.9498 32.4856 34.9348 31.947 34.9348 31.4103C34.9348 31.0687 34.8372 30.836 34.4862 30.7122C32.4126 29.9766 31.1797 28.4565 30.5023 26.366ZM30.5323 23.9734C31.3767 22.3539 32.0917 21.9204 33.8069 21.9091C33.9946 21.9091 34.1822 21.896 34.3699 21.9091C34.794 21.9373 34.9573 21.7383 34.9516 21.3274C34.9385 20.3891 34.9685 19.4508 34.9348 18.5256C34.9256 17.9943 34.7138 17.4866 34.3426 17.1063C33.9715 16.7261 33.469 16.5021 32.9381 16.4801C31.7314 16.4088 30.6223 17.1388 30.5623 18.2666C30.4591 20.1451 30.5323 22.0179 30.5323 23.9809V23.9734ZM39.797 34.2946C40.36 34.2946 41.0374 33.8573 41.4859 33.0579C41.743 32.5963 41.7224 32.3073 41.1012 32.1834C40.0034 31.9789 38.9131 31.7331 37.8247 31.4816C37.4325 31.3915 37.273 31.491 37.2467 31.9094C37.1642 33.1818 38.1681 34.2833 39.797 34.2965V34.2946Z" fill="#1F2544"/>
<path d="M32.3152 63.1641C29.0856 63.1641 25.856 63.181 22.6264 63.151C21.962 63.151 21.7875 63.3649 21.8006 63.9973C21.8382 65.705 21.8382 67.4133 21.8006 69.1223C21.7894 69.7491 21.947 69.9968 22.6207 69.9724C23.9775 69.9236 25.3361 69.9517 26.6929 69.9611C27.5524 69.9611 28.0065 70.3683 27.9878 71.0871C27.969 71.8058 27.5393 72.1567 26.7117 72.1624C24.7688 72.1699 22.8265 72.1699 20.8849 72.1624C19.9804 72.1624 19.6088 71.787 19.6069 70.8713C19.6069 67.9926 19.6069 65.1139 19.6069 62.2389C19.6069 61.6422 19.7946 61.1824 20.3876 60.9685C20.7122 60.8503 20.7798 60.5932 20.776 60.2986C20.7648 59.1051 20.8004 57.9097 20.731 56.718C20.6691 55.6371 20.183 54.6894 19.5037 53.86C16.8765 50.6454 15.5816 46.8772 14.9811 42.8331C14.8516 41.9549 14.7634 41.0691 14.7184 40.1834C14.6696 39.2451 15.0937 38.699 15.805 38.6671C16.5162 38.6352 16.9665 39.1757 17.0078 40.1008C17.1264 43.1945 17.848 46.2352 19.1321 49.0522C19.6415 50.1856 20.2991 51.2463 21.0875 52.2067C22.4633 53.8033 23.1751 55.8663 23.0767 57.9716C23.0486 58.6959 23.0992 59.4241 23.0636 60.1484C23.0354 60.7114 23.2513 60.8822 23.7955 60.8784C26.2069 60.8578 28.6164 60.8784 31.0278 60.8784C34.2819 60.8784 37.5359 60.8615 40.7861 60.8934C41.4842 60.8934 41.7394 60.7058 41.7244 59.9814C41.6656 58.9299 41.6857 57.8754 41.7845 56.8269C41.9024 55.7745 42.3111 54.7757 42.9648 53.9426C43.6442 53.0774 44.3329 52.2217 44.9597 51.3153C45.3913 50.6885 46.0725 50.5534 46.6035 50.925C47.1346 51.2966 47.2397 51.9215 46.81 52.5933C46.2363 53.4775 45.6037 54.322 44.9165 55.121C44.3106 55.8162 43.9849 56.7118 44.0026 57.6338C44.0026 58.5008 44.0139 59.3659 44.0026 60.2329C44.0026 60.5913 44.0645 60.854 44.4548 60.9948C45.0347 61.2031 45.2543 61.6816 45.2543 62.2709C45.2543 65.1252 45.2655 67.9813 45.2543 70.8375C45.2543 71.7852 44.8208 72.1774 43.8506 72.1774C39.7083 72.1774 35.5654 72.1774 31.4219 72.1774C30.5343 72.1774 30.0182 71.7551 30.0257 71.0608C30.0332 70.3665 30.5456 69.9743 31.4482 69.9743C35.0137 69.9743 38.5642 69.9592 42.1222 69.9855C42.7547 69.9855 42.9855 69.8204 42.9705 69.1598C42.9311 67.4052 42.9404 65.6487 42.9705 63.8941C42.9705 63.3311 42.7828 63.1679 42.2348 63.1697C38.9152 63.1735 35.6161 63.1641 32.3152 63.1641Z" fill="#1F2544"/>
<path d="M4.7574 31.6205C5.71446 31.6205 6.6715 31.6111 7.63044 31.6205C8.41673 31.6317 8.90841 32.0502 8.93281 32.6976C8.9572 33.345 8.49367 33.8611 7.71864 33.8761C5.7332 33.9137 3.74778 33.9137 1.76234 33.8761C0.979805 33.8611 0.505031 33.3469 0.52192 32.722C0.542563 32.0577 1.05487 31.6336 1.88433 31.6223C2.84139 31.6092 3.79846 31.6205 4.7574 31.6205Z" fill="#1F2544"/>
<path d="M61.5373 31.6206C62.4962 31.6206 63.4533 31.6112 64.4104 31.6206C65.2286 31.6318 65.7427 32.0766 65.7465 32.7465C65.7465 33.3733 65.2736 33.8725 64.4798 33.8725C62.5194 33.91 60.5577 33.91 58.5948 33.8725C57.7785 33.8574 57.2962 33.3301 57.3393 32.6621C57.3825 31.994 57.8667 31.6187 58.6642 31.6112C59.625 31.6093 60.584 31.6206 61.5373 31.6206Z" fill="#1F2544"/>
<path d="M15.2925 15.951C15.1123 15.9487 14.9345 15.9094 14.7702 15.8355C14.6059 15.7616 14.4585 15.6546 14.3373 15.5213C12.9449 14.1326 11.5487 12.7496 10.1694 11.3478C9.6477 10.8204 9.64393 10.1111 10.1074 9.65882C10.571 9.20656 11.2053 9.22721 11.7401 9.75078C13.1588 11.1432 14.555 12.5544 15.9605 13.9694C16.1472 14.135 16.2736 14.3579 16.3198 14.6032C16.366 14.8484 16.3294 15.1021 16.2158 15.3242C16.1353 15.5042 16.0064 15.6582 15.8433 15.7689C15.6802 15.8797 15.4894 15.9427 15.2925 15.951Z" fill="#1F2544"/>
<path d="M56.4992 10.5107C56.4967 10.6754 56.4587 10.8376 56.3877 10.9862C56.3168 11.1349 56.2146 11.2665 56.0882 11.372C54.7164 12.7457 53.3521 14.125 51.9597 15.4855C51.3554 16.0823 50.7287 16.0973 50.237 15.5831C49.7922 15.1177 49.8279 14.4571 50.3796 13.8942C51.742 12.5111 53.1194 11.145 54.4931 9.76566C54.8684 9.39034 55.3132 9.21958 55.8311 9.44101C56.0427 9.52379 56.2219 9.67255 56.3422 9.86523C56.4626 10.0579 56.5176 10.2843 56.4992 10.5107Z" fill="#1F2544"/>
<path d="M25.0224 9.03005C24.9961 9.68123 24.7184 10.0453 24.1948 10.2198C23.9742 10.3136 23.7261 10.3193 23.5013 10.2359C23.2766 10.1525 23.0923 9.98629 22.9863 9.77131C22.5204 8.93286 22.1682 8.0361 21.9391 7.10467C21.8134 6.59799 22.1099 6.19077 22.5716 5.96933C23.0726 5.72913 23.5887 5.81358 23.8852 6.27334C24.4519 7.14032 24.7071 8.14805 25.0224 9.03005Z" fill="#1F2544"/>
<path d="M44.3745 7.05028C44.0498 7.98857 43.789 9.01694 43.1866 9.88768C42.8845 10.3212 42.3534 10.4094 41.8561 10.1466C41.3588 9.88393 41.128 9.43354 41.2931 8.91185C41.5659 8.06695 41.8906 7.23968 42.2652 6.43475C42.4942 5.94684 42.9614 5.75168 43.5094 5.9018C44.0574 6.05193 44.3069 6.44226 44.3745 7.05028Z" fill="#1F2544"/>
<path d="M9.45037 24.6433C8.57025 24.3205 7.5738 24.0672 6.70494 23.5023C6.25831 23.2096 6.18323 22.6823 6.43094 22.1887C6.67865 21.6952 7.12154 21.4381 7.64136 21.5995C8.48679 21.8628 9.31317 22.1839 10.1147 22.5603C10.6007 22.7892 10.7865 23.2696 10.6345 23.8101C10.4825 24.3506 10.0847 24.5832 9.45037 24.6433Z" fill="#1F2544"/>
<path d="M59.9683 22.6823C59.9658 22.8997 59.8993 23.1116 59.7772 23.2914C59.655 23.4713 59.4826 23.6112 59.2815 23.6938C58.5534 23.9997 57.8196 24.2999 57.0709 24.5514C56.9398 24.6018 56.8 24.6258 56.6597 24.622C56.5193 24.6182 56.3811 24.5867 56.2529 24.5293C56.1248 24.472 56.0092 24.3898 55.9128 24.2877C55.8165 24.1855 55.7413 24.0653 55.6916 23.934C55.6298 23.8071 55.5943 23.669 55.5872 23.528C55.5802 23.3871 55.6018 23.2461 55.6507 23.1137C55.6997 22.9813 55.7749 22.8602 55.8719 22.7577C55.9689 22.6552 56.0856 22.5733 56.2151 22.5171C56.9958 22.1542 57.8003 21.8444 58.6228 21.5901C59.2852 21.3912 59.9514 21.9635 59.9683 22.6823Z" fill="#1F2544"/>
</svg>
