<svg width="21" height="18" viewBox="0 0 21 18" fill="none" xmlns="http://www.w3.org/2000/svg">
<path d="M20.2601 1.53978C19.3309 1.9951 18.4203 2.18001 17.4725 2.4597C16.4308 1.28425 14.8865 1.2192 13.4025 1.77487C11.9186 2.33054 10.9466 3.68905 10.968 5.24734V6.17656C7.95268 6.25368 5.26725 4.8803 3.53427 2.4597C3.53427 2.4597 -0.351702 9.36655 7.25112 12.6811C5.51163 13.8398 3.77679 14.6213 1.67584 14.5395C4.74968 16.2149 8.09949 16.791 10.9996 15.9491C14.3262 14.9827 17.0599 12.4896 18.109 8.75512C18.4219 7.61932 18.5773 6.4459 18.5708 5.26779C18.5689 5.03641 19.9739 2.69294 20.2601 1.53978Z" stroke="white" stroke-width="1.39382" stroke-linecap="round" stroke-linejoin="round"/>
</svg>
